<?xml version="1.0" encoding="UTF-8"?>
<svg width="245px" height="245px" viewBox="0 0 245 245" version="1.1" xmlns="http://www.w3.org/2000/svg" xmlns:xlink="http://www.w3.org/1999/xlink">
    <title>luweb_square</title>
    <g id="luweb_square" stroke="none" stroke-width="1" fill="none" fill-rule="evenodd">
        <g id="luweb_logo" transform="translate(48.000000, 20.000000)" fill="#3886CF">
            <path d="M81.6,105.772381 L81.6,130.881147 C81.6,132.206631 82.6745166,133.281147 84,133.281147 C84.6356464,133.281147 85.2453318,133.028982 85.6952734,132.579985 L141.505813,76.8865276 C146.20529,72.2134438 146.213268,64.6154682 141.5319,59.9242585 C141.529143,59.9214957 141.526385,59.9187343 141.515349,59.9242492 L85.6971823,4.09779094 C84.7599936,3.16046303 83.2403977,3.16035018 82.3030698,4.09753886 C81.8529054,4.54763642 81.6,5.15813983 81.6,5.79472117 L81.6,30.9665751 C81.6,34.1635094 82.8756657,37.2282876 85.1440186,39.4810557 L114.273258,68.4101608 L114.273258,68.4101608 L85.1560198,97.2459987 C82.8803328,99.4996926 81.6,102.569587 81.6,105.772381 Z" id="bracket-2"></path>
            <path d="M4.97379915e-14,174.105714 L4.97379915e-14,199.214481 C7.03284201e-14,200.539964 1.0745166,201.614481 2.4,201.614481 C3.03564636,201.614481 3.64533181,201.362316 4.09527337,200.913318 L59.9058135,145.219861 C64.6052901,140.546777 64.6132682,132.948802 59.9319001,128.257592 C59.9291431,128.254829 59.9263847,128.252068 59.9153488,128.257583 L4.09718231,72.4311243 C3.15999362,71.4937964 1.64039768,71.4936835 0.703069768,72.4308722 C0.252905355,72.8809697 5.63213709e-14,73.4914732 4.97379915e-14,74.1280545 L4.97379915e-14,99.2999084 C5.54585736e-14,102.496843 1.27566572,105.561621 3.54401865,107.814389 L32.6732578,136.743494 L32.6732578,136.743494 L3.55601976,165.579332 C1.28033276,167.833026 6.17802603e-14,170.902921 4.97379915e-14,174.105714 Z" id="bracket-1" transform="translate(34.200000, 136.666667) scale(-1, 1) translate(-34.200000, -136.666667) "></path>
        </g>
    </g>
</svg>