<?xml version="1.0" encoding="UTF-8"?>
<svg width="738px" height="199px" viewBox="0 0 738 199" version="1.1" xmlns="http://www.w3.org/2000/svg" xmlns:xlink="http://www.w3.org/1999/xlink">
    <title>Luweb logo</title>
    <g id="Page-1" stroke="none" stroke-width="1" fill="none" fill-rule="evenodd">
        <g id="logo-copy-15" transform="translate(-74.000000, -63.000000)" fill="#3886CF">
            <g id="luweb_logo" transform="translate(70.000000, 60.000000)">
                <path d="M219.265724,185.601683 L190,185.601683 L190,21.0771388 L219.265724,17 L219.265724,185.601683 Z M351.947877,68.8036466 L324.639638,177.716518 C310.787331,183.856246 294.43758,188 282.035105,188 C262.604583,188 255.647977,174.329593 255.647977,153.464236 L255.647977,68.8036466 L284.913701,68.8036466 L284.913701,150.346424 C284.913701,156.582048 287.552413,159.69986 294.269137,159.69986 C301.465627,159.69986 314.179425,155.382889 324.734276,149.86676 L324.734276,68.8036466 L351.947877,68.8036466 Z" id="lu" fill-rule="nonzero"></path>
                <path d="M357.878176,174.026039 L373.591909,111.317534 L380.154619,146.98878 L403.409259,68.8036466 L433.856054,68.8036466 L456.870955,146.98878 L471.255267,68.8036466 L498.585462,68.8036466 L477.008993,185.601683 L443.205857,185.601683 L418.512787,101.660589 L393.819717,185.601683 L360.016581,185.601683 L357.878176,174.026039 Z M547.651951,144.350631 C547.651951,158.500701 552.686461,164.01683 570.427113,164.01683 C581.694825,164.01683 593.442014,162.338008 606.148157,158.500701 L610.703189,180.565217 C597.517569,185.601683 581.694825,188 567.789989,188 C531.109991,188 518.403848,170.97195 518.403848,142.911641 L518.403848,111.973352 C518.403848,87.2706872 529.431821,66.4053296 566.831035,66.4053296 C604.230248,66.4053296 612.621097,88.230014 612.621097,113.412342 L612.621097,138.354839 L547.651951,138.354839 L547.651951,144.350631 Z M547.651951,109.095372 L547.651951,114.851332 L584.811426,114.851332 L584.811426,109.095372 C584.811426,98.0631136 581.455086,90.3884993 567.070773,90.3884993 C552.686461,90.3884993 547.651951,98.0631136 547.651951,109.095372 Z M742,106.457223 L742,140.753156 C742,169.053296 733.369412,188 688.298565,188 C676.551377,188 657.612031,186.800842 642.98798,183.922861 L642.98798,21.0771388 L672.236083,17 L672.236083,73.3604488 C680.86667,69.7629734 694.052291,66.4053296 706.758434,66.4053296 C731.930981,66.4053296 742,81.7545582 742,106.457223 Z M672.236083,98.0631136 L672.236083,162.098177 C677.510331,162.817672 683.503794,163.057504 689.736997,163.057504 C708.91608,163.057504 712.751897,155.382889 712.751897,141.712482 L712.751897,105.737728 C712.751897,96.3842917 708.676342,91.3478261 697.888107,91.3478261 C689.736997,91.3478261 679.428239,94.7054698 672.236083,98.0631136 Z" id="web" fill-rule="nonzero"></path>
                <path d="M81.6,105.772381 L81.6,130.881147 C81.6,132.206631 82.6745166,133.281147 84,133.281147 C84.6356464,133.281147 85.2453318,133.028982 85.6952734,132.579985 L141.51408,76.8948119 C146.20529,72.2134438 146.213268,64.6154682 141.5319,59.9242585 C141.529143,59.9214957 141.526385,59.9187343 141.523625,59.9159742 L85.6971823,4.09779094 C84.7599936,3.16046303 83.2403977,3.16035018 82.3030698,4.09753886 C81.8529054,4.54763642 81.6,5.15813983 81.6,5.79472117 L81.6,30.9665751 C81.6,34.1635094 82.8756657,37.2282876 85.1440186,39.4810557 L114.273258,68.4101608 L85.1560198,97.2459987 C82.8803328,99.4996926 81.6,102.569587 81.6,105.772381 Z" id="bracket-2"></path>
                <path d="M4.97379915e-14,174.105714 L7.01660952e-14,199.214481 C7.03284201e-14,200.539964 1.0745166,201.614481 2.4,201.614481 C3.03564636,201.614481 3.64533181,201.362316 4.09527337,200.913318 L59.9140804,145.228145 C64.6052901,140.546777 64.6132682,132.948802 59.9319001,128.257592 C59.9291431,128.254829 59.9263847,128.252068 59.9236251,128.249308 L4.09718231,72.4311243 C3.15999362,71.4937964 1.64039768,71.4936835 0.703069768,72.4308722 C0.252905355,72.8809697 5.63213709e-14,73.4914732 5.63993297e-14,74.1280545 L5.5067062e-14,99.2999084 C5.54585736e-14,102.496843 1.27566572,105.561621 3.54401865,107.814389 L32.6732578,136.743494 L3.55601976,165.579332 C1.28033276,167.833026 5.75132819e-14,170.902921 6.21724894e-14,174.105714 Z" id="bracket-1" transform="translate(34.200000, 136.666667) scale(-1, 1) translate(-34.200000, -136.666667) "></path>
            </g>
        </g>
    </g>
</svg>