<?xml version="1.0" encoding="UTF-8"?>
<svg width="862px" height="322px" viewBox="0 0 862 322" version="1.1" xmlns="http://www.w3.org/2000/svg" xmlns:xlink="http://www.w3.org/1999/xlink">
    <!-- Generator: Sketch 53.2 (72643) - https://sketchapp.com -->
    <title>logo copy 11</title>
    <desc>Created with Sketch.</desc>
    <g id="logo-copy-11" stroke="none" stroke-width="1" fill="none" fill-rule="evenodd">
        <g id="brackets" transform="translate(50.000000, 50.000000)" fill="#0247D0">
            <path d="M86,111.167785 L86,145.540216 C86,146.092501 86.4477153,146.540216 87,146.540216 C87.2697712,146.540216 87.5280987,146.43122 87.7163337,146.237974 L154.6055,77.5680675 C156.495086,75.6281768 156.496823,72.5365298 154.609419,70.5945167 L87.7171175,1.76679936 C87.3322013,1.37074632 86.6991007,1.36171808 86.3030477,1.74663422 C86.1093104,1.9349237 86,2.19359047 86,2.46375168 L86,36.9038669 C86,38.2113526 86.512152,39.4668221 87.4267023,40.4012293 L120.392903,74.0831985 L87.431631,107.665394 C86.5140584,108.600251 86,109.857861 86,111.167785 Z" id="bracket-2"></path>
            <path d="M0,185.167785 L-1.01030295e-14,219.540216 C-1.00353941e-14,220.092501 0.44771525,220.540216 1,220.540216 C1.26977122,220.540216 1.52809873,220.43122 1.71633372,220.237974 L68.6055002,151.568067 C70.4950859,149.628177 70.4968232,146.53653 68.6094189,144.594517 L1.71711746,75.7667994 C1.33220132,75.3707463 0.699100714,75.3617181 0.303047675,75.7466342 C0.109310354,75.9349237 2.97347034e-15,76.1935905 2.88657986e-15,76.4637517 L4.4408921e-15,110.903867 C4.60101291e-15,112.211353 0.512152035,113.466822 1.42670226,114.401229 L34.3929029,148.083198 L1.43163105,181.665394 C0.514058362,182.600251 -1.11097476e-15,183.857861 -4.4408921e-15,185.167785 Z" id="bracket-1" transform="translate(36.000000, 148.000000) scale(-1, 1) translate(-36.000000, -148.000000) "></path>
        </g>
        <path d="M289.265724,245.601683 L260,245.601683 L260,81.0771388 L289.265724,77 L289.265724,245.601683 Z M424,148.537161 L400.598323,241.86957 L398.812287,235.768583 C384.179425,242.963534 365.708435,248 352.035105,248 C332.604583,248 325.647977,234.329593 325.647977,213.464236 L325.647977,128.803647 L354.913701,128.803647 L354.913701,210.346424 C354.913701,216.582048 357.552413,219.69986 364.269137,219.69986 C371.465627,219.69986 384.179425,215.382889 394.734276,209.86676 L394.734276,128.803647 L424,128.803647 L424,148.537161 Z" id="lu" fill="#0247D0" fill-rule="nonzero"></path>
        <path d="M430,245.511924 L445.708729,182.823389 L450.154619,206.98878 L473.409259,128.803647 L503.856054,128.803647 L526.870955,206.98878 L541.255267,128.803647 L568.585462,128.803647 L547.008993,245.601683 L513.205857,245.601683 L488.512787,161.660589 L463.819717,245.601683 L430.016581,245.601683 L430,245.511924 Z M617.651951,204.350631 C617.651951,218.500701 622.686461,224.01683 640.427113,224.01683 C651.694825,224.01683 663.442014,222.338008 676.148157,218.500701 L680.703189,240.565217 C667.517569,245.601683 651.694825,248 637.789989,248 C601.109991,248 588.403848,230.97195 588.403848,202.911641 L588.403848,171.973352 C588.403848,147.270687 599.431821,126.40533 636.831035,126.40533 C674.230248,126.40533 682.621097,148.230014 682.621097,173.412342 L682.621097,198.354839 L617.651951,198.354839 L617.651951,204.350631 Z M617.651951,169.095372 L617.651951,174.851332 L654.811426,174.851332 L654.811426,169.095372 C654.811426,158.063114 651.455086,150.388499 637.070773,150.388499 C622.686461,150.388499 617.651951,158.063114 617.651951,169.095372 Z M812,166.457223 L812,200.753156 C812,229.053296 803.369412,248 758.298565,248 C746.551377,248 727.612031,246.800842 712.98798,243.922861 L712.98798,81.0771388 L742.236083,77 L742.236083,133.360449 C750.86667,129.762973 764.052291,126.40533 776.758434,126.40533 C801.930981,126.40533 812,141.754558 812,166.457223 Z M742.236083,158.063114 L742.236083,222.098177 C747.510331,222.817672 753.503794,223.057504 759.736997,223.057504 C778.91608,223.057504 782.751897,215.382889 782.751897,201.712482 L782.751897,165.737728 C782.751897,156.384292 778.676342,151.347826 767.888107,151.347826 C759.736997,151.347826 749.428239,154.70547 742.236083,158.063114 Z" id="web" fill="#0247D0" fill-rule="nonzero"></path>
    </g>
</svg>