<svg height="64" viewBox="0 0 64 64" width="64" xmlns="http://www.w3.org/2000/svg"><path d="m35 66.5c-17.3969696 0-31.5-14.1030304-31.5-31.5s14.1030304-31.5 31.5-31.5 31.5 14.1030304 31.5 31.5-14.1030304 31.5-31.5 31.5zm11.9596651-5.0855c1.456121 0 2.6724964-.7496925 3.6491629-2.2491s1.6070508-3.552137 1.891172-6.15825c-1.3850906.5712029-2.8767043.8568-4.4748858.8568-1.7757573 0-3.4804586-.3302217-5.1141553-.990675-1.6336966-.6604533-3.6047576-1.6154188-5.913242-2.864925-1.4916361-.8211041-2.7612835-1.4726226-3.8089802-1.954575-1.0476968-.4819524-2.0687419-.8478738-3.0631659-1.097775l8.2039574-38.4489c-.9233938-.07140036-1.633686-.1071-2.1308981-.1071-2.9122418 0-5.82444.66936831-8.7366819 2.008125-2.9122418 1.3387567-5.3005995 3.0880392-7.1651445 5.2479-1.8645451 2.1598608-2.7968037 4.3821636-2.7968037 6.666975 0 1.8564093.4705686 3.186221 1.4117199 3.989475.9411514.803254 2.3706145 1.204875 4.2884323 1.204875 0-.0714004-.1243011-.3659224-.3729071-.883575-.2486061-.5176526-.3729072-1.4369184-.3729072-2.757825 0-2.8560143.6481417-5.2746651 1.9444444-7.256025 1.2963028-1.9813599 3.134184-3.4539702 5.5136987-4.417875l-7.9375952 37.11015c.2841212-.0357002.6925392-.05355 1.2252664-.05355 1.5271512 0 3.0276436.303447 4.5015221.91035s2.841191 1.3476706 4.1019787 2.222325c1.2607876.8746544 2.7790373 2.0259679 4.5547945 3.453975 2.3795147 1.8921095 4.341697 3.2933204 5.8866058 4.203675s3.1164303 1.365525 4.7146118 1.365525z" fill="#4d7a95" fill-rule="evenodd" transform="translate(-3 -3)"/></svg>