<svg height="90" viewBox="0 0 240 90" width="240" xmlns="http://www.w3.org/2000/svg" xmlns:xlink="http://www.w3.org/1999/xlink"><linearGradient id="a"><stop offset="0" stop-color="#221c67"/><stop offset=".551526373" stop-color="#00468f"/><stop offset="1" stop-color="#006da9"/></linearGradient><linearGradient id="b" x1="6.202289%" x2="100.021966%" xlink:href="#a" y1="93.860929%" y2="12.319393%"/><linearGradient id="c" x1="-114.901598%" x2="100.021966%" xlink:href="#a" y1="61.222148%" y2="45.135904%"/><g fill="none" fill-rule="evenodd"><path d="m45 90c-24.8528137 0-45-20.1471863-45-45s20.1471863-45 45-45 45 20.1471863 45 45-20.1471863 45-45 45zm17.3045-7.265c2.0910105 0 3.837743-1.0709893 5.24025-3.213s2.307748-5.0744814 2.71575-8.7975c-1.9890099.8160041-4.1309885 1.224-6.426 1.224-2.5500128 0-4.9979883-.4717453-7.344-1.41525s-5.1764834-2.3077411-8.4915-4.09275c-2.1420107-1.1730059-3.9652425-2.1037466-5.46975-2.79225s-2.9707429-1.2112482-4.39875-1.56825l11.781-54.927c-1.3260066-.10200051-2.3459964-.153-3.06-.153-4.1820209 0-8.3639791.95624044-12.546 2.86875-4.1820209 1.9125096-7.6117366 4.4114846-10.28925 7.497s-4.01625 6.2602337-4.01625 9.52425c0 2.6520133.6757432 4.5517443 2.02725 5.69925s3.4042362 1.72125 6.15825 1.72125c0-.1020005-.1784982-.5227463-.5355-1.26225s-.5355-2.0527406-.5355-3.93975c0-4.0800204.9307407-7.5352358 2.79225-10.36575s4.5007329-4.9342431 7.91775-6.31125l-11.3985 53.0145c.408002-.0510003.9944962-.0765 1.7595-.0765 2.193011 0 4.3477394.4334957 6.46425 1.3005s4.0799909 1.9252438 5.8905 3.17475 3.9907372 2.8942398 6.54075 4.93425c3.4170171 2.7030135 6.2347389 4.7047435 8.45325 6.00525s4.4752385 1.95075 6.77025 1.95075z" fill="url(#b)"/><path d="m119.575 40.3065 8.1855-38.3265 11.322-1.53-3.672 17.2125c1.428007-.8670043 2.600995-1.4407486 3.519-1.72125s1.835995-.42075 2.754-.42075c6.01803 0 9.027 4.3604564 9.027 13.0815 0 3.5190176-.675743 7.28023-2.02725 11.28375s-3.595484 7.4332357-6.732 10.28925-7.203725 4.284-12.20175 4.284c-3.468017 0-6.119991-.8542415-7.956-2.56275-1.794733-1.6700988-2.71226-4.0102405-2.752608-7.0204927-5.052308 6.3888547-11.019733 9.5832427-17.902392 9.5832427-3.7740189 0-6.7064895-.9817402-8.7975-2.94525s-3.1365-5.0362291-3.1365-9.21825c0-3.5190176.6884931-7.3949788 2.0655-11.628s3.6209844-7.8922346 6.732-10.97775c3.111016-3.0855154 7.063476-4.62825 11.8575-4.62825 5.610028 0 8.415 2.4479755 8.415 7.344 0 2.8560143-.815992 5.482488-2.448 7.8795s-3.799486 4.3222427-6.5025 5.77575-5.584485 2.282249-8.6445 2.48625c-.102001 1.5300077-.153 2.5499975-.153 3.06 0 2.4990125.433496 4.1947455 1.3005 5.08725s2.26949 1.33875 4.2075 1.33875c2.754014 0 5.11274-.6374936 7.07625-1.9125s4.118238-3.212987 6.46425-5.814zm-79.9425 0 5.202-24.5565h11.016l-5.508 26.01c-.1530008.6120031-.2295 1.2494967-.2295 1.9125 0 2.2440112.7649923 3.366 2.295 3.366 1.4280071 0 2.6519949-.599244 3.672-1.79775s1.8359969-2.8432395 2.448-4.93425l5.202-24.5565h11.016l-5.508 26.01c-.2550013 1.2750064-.3825 2.1929972-.3825 2.754 0 1.6830084.8669913 2.5245 2.601 2.5245 2.3460117 0 4.5262399-1.4789852 6.54075-4.437s3.6337439-6.4769796 4.85775-10.557 1.836-7.5989852 1.836-10.557c-.1020005.2550013-.4334972.4462494-.9945.57375s-1.045498.19125-1.4535.19125c-.8670043 0-1.5427476-.4079959-2.02725-1.224s-.72675-1.7084952-.72675-2.6775c0-1.2240061.395246-2.2184962 1.18575-2.9835s1.9762421-1.1475 3.55725-1.1475c1.6830084 0 2.9069962.6247438 3.672 1.87425s1.1475 2.8432403 1.1475 4.78125c0 4.590023-.7904921 9.4987239-2.3715 14.72625s-4.0034837 9.6772316-7.2675 13.34925-7.3184758 5.508-12.1635 5.508c-2.4990125 0-4.5389921-.5354946-6.12-1.6065s-2.6009977-2.6774893-3.06-4.8195c-2.8560143 4.2840214-6.4769781 6.426-10.863 6.426-2.4480122 0-4.4242425-.7649923-5.92875-2.295-1.0357986-1.0533546-1.7150371-2.4692909-2.0377228-4.2478315-1.0457358 1.5388276-2.1769929 2.7380183-3.3937772 3.5975815-2.7795139 1.9635098-5.571736 2.94525-8.37675 2.94525-2.193011 0-3.9397435-.6119939-5.24025-1.836s-2.0782487-3.034488-2.33325-5.4315c-1.7340087 2.805014-3.5572404 4.7174949-5.46975 5.7375s-3.8632401 1.53-5.85225 1.53c-2.44801224 0-4.42424248-.7649923-5.92875-2.295-1.50450752-1.5300076-2.25675-3.8249847-2.25675-6.885 0-1.2750064.20399796-2.9324898.612-4.9725l5.202-24.5565h11.016l-5.508 26.01c-.1530008.7650038-.2295 1.4789967-.2295 2.142 0 2.0910105.7649923 3.1365 2.295 3.1365 1.4280071 0 2.6519949-.599244 3.672-1.79775s1.8359969-2.8432395 2.448-4.93425l5.202-24.5565h11.016l-5.508 26.01c-.204001.7650038-.306 1.5809957-.306 2.448 0 1.0200051.2422476 1.7467478.72675 2.18025s1.2877444.65025 2.40975.65025c1.4280071 0 2.6647448-.6119939 3.71025-1.836s1.8742469-2.8559898 2.48625-4.896zm61.659-5.4315c1.887009-.1020005 3.684741-.7649939 5.39325-1.989s3.085495-2.7794906 4.131-4.6665 1.56825-3.8759895 1.56825-5.967-.637494-3.1365-1.9125-3.1365c-1.836009 0-3.633741 1.6064839-5.39325 4.8195s-3.021746 6.8594796-3.78675 10.9395zm32.742 12.1635c1.581008 0 3.059993-.9817402 4.437-2.94525s2.473496-4.4114853 3.2895-7.344 1.224-5.7502365 1.224-8.45325c0-2.0400102-.356996-3.7739929-1.071-5.202s-1.708494-2.142-2.9835-2.142c-.765004 0-1.619245.1147489-2.56275.34425s-1.593748.5737477-1.95075 1.03275l-4.2075 19.431c-.153001.6120031-.2295 1.1984972-.2295 1.7595 0 2.3460117 1.351486 3.519 4.0545 3.519z" fill="url(#c)" transform="translate(89 18)"/></g></svg>