<svg width="60" height="60" viewBox="0 0 60 60" fill="none" xmlns="http://www.w3.org/2000/svg">
<circle cx="30" cy="30" r="30" fill="#08599A"/>
<circle cx="30" cy="30" r="27" fill="white"/>
<path fill-rule="evenodd" clip-rule="evenodd" d="M11.9418 43.1197H48.2524V41.3912H11.9418V43.1197Z" fill="#08599A"/>
<path fill-rule="evenodd" clip-rule="evenodd" d="M45.5881 18.0349L46.1998 18.8875L33.934 27.2087L26.5988 17L10 28.4057L10.0039 30.2519L26.2473 19.0947L33.5766 29.2358L47.0818 20.118L47.6979 20.9774L49.8058 17.2906L45.5881 18.0349Z" fill="#08599A"/>
<path fill-rule="evenodd" clip-rule="evenodd" d="M12.1359 39.8548H18.1553V25.8346L12.1359 30.1229V39.8548Z" fill="#08599A"/>
<path fill-rule="evenodd" clip-rule="evenodd" d="M46.643 22.1855L41.2621 25.9928V40.0469H47.2815V23.0888L46.643 22.1855Z" fill="#08599A"/>
<path fill-rule="evenodd" clip-rule="evenodd" d="M34.0775 30.6724V40.047H40.097V26.4109L34.0944 30.6603L34.0775 30.6724Z" fill="#08599A"/>
<path fill-rule="evenodd" clip-rule="evenodd" d="M19.5145 25.5371V40.0469H25.5339V21.2253L19.5145 25.5371Z" fill="#08599A"/>
<path fill-rule="evenodd" clip-rule="evenodd" d="M26.699 21.9935V39.8549H32.7184V30.6903L26.699 21.9935Z" fill="#08599A"/>
</svg>
