<svg height="185" viewBox="0 0 150 185" width="150" xmlns="http://www.w3.org/2000/svg" xmlns:xlink="http://www.w3.org/1999/xlink"><defs><path id="a" d="m69 0c38.108599 0 69 31.1005074 69 69.4645535 0 38.3640465-30.891401 69.4656795-69 69.4656795-38.1074814 0-69-31.101633-69-69.4656795 0-38.3640461 30.8925186-69.4645535 69-69.4645535"/><filter id="b" height="115.1%" width="115.2%" x="-7.6%" y="-5.4%"><feOffset dx="0" dy="3" in="SourceAlpha" result="shadowOffsetOuter1"/><feGaussianBlur in="shadowOffsetOuter1" result="shadowBlurOuter1" stdDeviation="3"/><feColorMatrix in="shadowBlurOuter1" result="shadowMatrixOuter1" type="matrix" values="0 0 0 0 0   0 0 0 0 0   0 0 0 0 0  0 0 0 0.23 0"/><feOffset dx="0" dy="3" in="SourceAlpha" result="shadowOffsetOuter2"/><feGaussianBlur in="shadowOffsetOuter2" result="shadowBlurOuter2" stdDeviation="3"/><feColorMatrix in="shadowBlurOuter2" result="shadowMatrixOuter2" type="matrix" values="0 0 0 0 0   0 0 0 0 0   0 0 0 0 0  0 0 0 0.16 0"/><feMerge><feMergeNode in="shadowMatrixOuter1"/><feMergeNode in="shadowMatrixOuter2"/></feMerge></filter><path id="c" d="m68.3981842 159.666778v-23.883832c1.0008029.020236 1.9892365.020236 2.9899279 0v23.883832h6.3206258l-7.8150883 14.333222-7.8159797-14.333222z"/><filter id="d" height="154.9%" width="234.3%" x="-67.2%" y="-19.6%"><feOffset dx="0" dy="3" in="SourceAlpha" result="shadowOffsetOuter1"/><feGaussianBlur in="shadowOffsetOuter1" result="shadowBlurOuter1" stdDeviation="3"/><feColorMatrix in="shadowBlurOuter1" result="shadowMatrixOuter1" type="matrix" values="0 0 0 0 0   0 0 0 0 0   0 0 0 0 0  0 0 0 0.23 0"/><feOffset dx="0" dy="3" in="SourceAlpha" result="shadowOffsetOuter2"/><feGaussianBlur in="shadowOffsetOuter2" result="shadowBlurOuter2" stdDeviation="3"/><feColorMatrix in="shadowBlurOuter2" result="shadowMatrixOuter2" type="matrix" values="0 0 0 0 0   0 0 0 0 0   0 0 0 0 0  0 0 0 0.16 0"/><feMerge><feMergeNode in="shadowMatrixOuter1"/><feMergeNode in="shadowMatrixOuter2"/></feMerge></filter></defs><g fill="none" fill-rule="evenodd" transform="translate(6 3)"><use fill="#000" filter="url(#b)" xlink:href="#a"/><use fill="#9d9f8d" fill-rule="evenodd" xlink:href="#a"/><use fill="#000" filter="url(#d)" xlink:href="#c"/><use fill="#9d9f8d" fill-rule="evenodd" xlink:href="#c"/><path d="m68.7772565 8.10344825c-33.5394954 0-60.7269911 27.37236875-60.7269911 61.13742305 0 33.7650547 27.1874957 61.1374227 60.7269911 61.1374227 33.5394955 0 60.7258765-27.372368 60.7258765-61.1374227 0-33.7661768-27.186381-61.13742305-60.7258765-61.13742305zm0-2.25848701c34.7760005 0 62.9703165 28.38374886 62.9703165 63.39591006 0 35.0121617-28.194316 63.3947877-62.9703165 63.3947877-34.7771152 0-62.97143126-28.383749-62.97143126-63.3947877 0-35.0121612 28.19431606-63.39591006 62.97143126-63.39591006z" fill="#fff"/><g fill="#fafbfc"><path d="m25.9029126 98.0155039h83.5145634v-4.0465117h-83.5145634z"/><path d="m103.289502 39.2908915 1.406933 1.9960682-28.2113471 19.4801887-16.8708888-23.8989313-38.1773059 26.7010608.0089471 4.322195 37.359764-26.1195292 16.8574681 23.740638 31.0621186-21.3449071 1.416998 2.0117853 4.848102-8.6309181z"/><path d="m26.3495146 90.372093h13.8446602v-32.8217054l-13.8446602 10.0391447z"/><path d="m105.715875 49.0077519-12.3760692 8.9127991v32.9011544h13.8446602v-39.6994921z"/><path d="m76.815534 68.8754942v21.9462112h13.8446602v-31.9224806l-13.8057567 9.9480304z"/><path d="m43.3203883 56.8536184v33.968087h13.8446602v-44.0620155z"/><path d="m59.8446602 48.5581395v41.8139535h13.8446602v-21.4544442z"/></g></g></svg>