<svg height="185" viewBox="0 0 150 185" width="150" xmlns="http://www.w3.org/2000/svg" xmlns:xlink="http://www.w3.org/1999/xlink"><defs><path id="a" d="m69 0c38.108599 0 69 31.1005074 69 69.4645535 0 38.3640465-30.891401 69.4656795-69 69.4656795-38.1074814 0-69-31.101633-69-69.4656795 0-38.3640461 30.8925186-69.4645535 69-69.4645535"/><filter id="b" height="115.1%" width="115.2%" x="-7.6%" y="-5.4%"><feOffset dx="0" dy="3" in="SourceAlpha" result="shadowOffsetOuter1"/><feGaussianBlur in="shadowOffsetOuter1" result="shadowBlurOuter1" stdDeviation="3"/><feColorMatrix in="shadowBlurOuter1" result="shadowMatrixOuter1" type="matrix" values="0 0 0 0 0   0 0 0 0 0   0 0 0 0 0  0 0 0 0.24 0"/><feOffset dx="0" dy="2" in="SourceAlpha" result="shadowOffsetOuter2"/><feGaussianBlur in="shadowOffsetOuter2" result="shadowBlurOuter2" stdDeviation="2"/><feColorMatrix in="shadowBlurOuter2" result="shadowMatrixOuter2" type="matrix" values="0 0 0 0 0   0 0 0 0 0   0 0 0 0 0  0 0 0 0.5 0"/><feMerge><feMergeNode in="shadowMatrixOuter1"/><feMergeNode in="shadowMatrixOuter2"/></feMerge></filter><path id="c" d="m68.3981842 159.666778v-23.883832c1.0008029.020236 1.9892365.020236 2.9899279 0v23.883832h6.3206258l-7.8150883 14.333222-7.8159797-14.333222z"/><filter id="d" height="154.9%" width="234.3%" x="-67.2%" y="-19.6%"><feOffset dx="0" dy="3" in="SourceAlpha" result="shadowOffsetOuter1"/><feGaussianBlur in="shadowOffsetOuter1" result="shadowBlurOuter1" stdDeviation="3"/><feColorMatrix in="shadowBlurOuter1" result="shadowMatrixOuter1" type="matrix" values="0 0 0 0 0   0 0 0 0 0   0 0 0 0 0  0 0 0 0.24 0"/><feOffset dx="0" dy="2" in="SourceAlpha" result="shadowOffsetOuter2"/><feGaussianBlur in="shadowOffsetOuter2" result="shadowBlurOuter2" stdDeviation="2"/><feColorMatrix in="shadowBlurOuter2" result="shadowMatrixOuter2" type="matrix" values="0 0 0 0 0   0 0 0 0 0   0 0 0 0 0  0 0 0 0.5 0"/><feMerge><feMergeNode in="shadowMatrixOuter1"/><feMergeNode in="shadowMatrixOuter2"/></feMerge></filter></defs><g fill="none" fill-rule="evenodd" transform="translate(6 3)"><use fill="#000" filter="url(#b)" xlink:href="#a"/><use fill="#5ad3a1" fill-rule="evenodd" xlink:href="#a"/><use fill="#000" filter="url(#d)" xlink:href="#c"/><use fill="#5ad3a1" fill-rule="evenodd" xlink:href="#c"/><g fill="#fff"><path d="m68.7772565 8.10344825c-33.5394954 0-60.7269911 27.37236875-60.7269911 61.13742305 0 33.7650547 27.1874957 61.1374227 60.7269911 61.1374227 33.5394955 0 60.7258765-27.372368 60.7258765-61.1374227 0-33.7661768-27.186381-61.13742305-60.7258765-61.13742305zm0-2.25848701c34.7760005 0 62.9703165 28.38374886 62.9703165 63.39591006 0 35.0121617-28.194316 63.3947877-62.9703165 63.3947877-34.7771152 0-62.97143126-28.383749-62.97143126-63.3947877 0-35.0121612 28.19431606-63.39591006 62.97143126-63.39591006z"/><path d="m37.1378832 53.5392036-23.0939488-23.2295262 23.0705031-23.22952619-7.03369-7.08015121-30.0807475 30.3096774 30.1041932 30.3096774zm13.1455176 0 23.0705032-23.2295262-23.0705032-23.22952619 7.03369-7.08015121 30.1041932 30.3096774-30.1041932 30.3096774z" fill-rule="nonzero" transform="translate(26 39)"/></g></g></svg>