<svg height="185" viewBox="0 0 150 185" width="150" xmlns="http://www.w3.org/2000/svg" xmlns:xlink="http://www.w3.org/1999/xlink"><defs><path id="a" d="m138 69.4645535c0 38.3640465-30.891401 69.4656795-69 69.4656795-38.1074814 0-69-31.101633-69-69.4656795 0-38.3640461 30.8925186-69.4645535 69-69.4645535 38.108599 0 69 31.1005074 69 69.4645535z"/><filter id="b" height="115.1%" width="115.2%" x="-7.6%" y="-5.4%"><feOffset dx="0" dy="3" in="SourceAlpha" result="shadowOffsetOuter1"/><feGaussianBlur in="shadowOffsetOuter1" result="shadowBlurOuter1" stdDeviation="3"/><feColorMatrix in="shadowBlurOuter1" result="shadowMatrixOuter1" type="matrix" values="0 0 0 0 0   0 0 0 0 0   0 0 0 0 0  0 0 0 0.24 0"/><feOffset dx="0" dy="2" in="SourceAlpha" result="shadowOffsetOuter2"/><feGaussianBlur in="shadowOffsetOuter2" result="shadowBlurOuter2" stdDeviation="2"/><feColorMatrix in="shadowBlurOuter2" result="shadowMatrixOuter2" type="matrix" values="0 0 0 0 0   0 0 0 0 0   0 0 0 0 0  0 0 0 0.5 0"/><feMerge><feMergeNode in="shadowMatrixOuter1"/><feMergeNode in="shadowMatrixOuter2"/></feMerge></filter><path id="c" d="m68.3981842 159.666778v-23.883832c1.0008029.020236 1.9892365.020236 2.9899279 0v23.883832h6.3206258l-7.8150883 14.333222-7.8159797-14.333222z"/><filter id="d" height="154.9%" width="234.3%" x="-67.2%" y="-19.6%"><feOffset dx="0" dy="3" in="SourceAlpha" result="shadowOffsetOuter1"/><feGaussianBlur in="shadowOffsetOuter1" result="shadowBlurOuter1" stdDeviation="3"/><feColorMatrix in="shadowBlurOuter1" result="shadowMatrixOuter1" type="matrix" values="0 0 0 0 0   0 0 0 0 0   0 0 0 0 0  0 0 0 0.24 0"/><feOffset dx="0" dy="2" in="SourceAlpha" result="shadowOffsetOuter2"/><feGaussianBlur in="shadowOffsetOuter2" result="shadowBlurOuter2" stdDeviation="2"/><feColorMatrix in="shadowBlurOuter2" result="shadowMatrixOuter2" type="matrix" values="0 0 0 0 0   0 0 0 0 0   0 0 0 0 0  0 0 0 0.5 0"/><feMerge><feMergeNode in="shadowMatrixOuter1"/><feMergeNode in="shadowMatrixOuter2"/></feMerge></filter></defs><g fill="none" fill-rule="evenodd" transform="translate(6 3)"><use fill="#000" filter="url(#b)" xlink:href="#a"/><use fill="#09909f" fill-rule="evenodd" xlink:href="#a"/><use fill="#000" filter="url(#d)" xlink:href="#c"/><use fill="#09909f" fill-rule="evenodd" xlink:href="#c"/><g fill="#fff"><path d="m68.5584758 7.87139024c-33.5394954 0-60.72699111 27.37236866-60.72699111 61.13742306 0 33.7650547 27.18749571 61.1374227 60.72699111 61.1374227 33.5394952 0 60.7258762-27.372368 60.7258762-61.1374227 0-33.7661769-27.186381-61.13742306-60.7258762-61.13742306zm0-2.25848701c34.7760002 0 62.9703162 28.38374887 62.9703162 63.39591007 0 35.0121617-28.194316 63.3947877-62.9703162 63.3947877-34.7771152 0-62.97143127-28.383749-62.97143127-63.3947877 0-35.0121612 28.19431607-63.39591007 62.97143127-63.39591007z"/><g transform="translate(26.259109 42.096774)"><path d="m72.1846154 13.7516129-17.7109312-13.7516129 17.7668016 28.6819355z"/><path d="m82.9676113 0v45.7451613h-10.168421l-17.6550607-27.6716129.4748987 27.6716129h-11.2020243v-30.0290323l-10.419838-8.22290319c.2793522.33677419.5587044.67354838.8101214 1.03838709 2.7935223 3.9009677 4.1902835 8.5596774 4.1902835 14.1725806 0 13.807742-8.5481782 23.0409678-21.4821863 23.0409678h-17.5153846v.1122581l50.367742 38.336129c15.5874972-2.2451613 28.0371163-9.5419355 37.3488572-21.8903226s13.2638018-26.0064516 11.8561837-40.9741935z"/><path d="m27.348583 23.0409677c0-8.1387096-3.9668016-12.6570967-11.0902834-12.6570967h-5.3635628v24.9774193h5.3076923c7.2631579 0 11.1461539-4.3219355 11.1461539-12.3203226z"/></g></g></g></svg>