<svg width="60" height="60" viewBox="0 0 60 60" fill="none" xmlns="http://www.w3.org/2000/svg">
<circle cx="30" cy="30" r="30" fill="#08599A"/>
<circle cx="30" cy="30" r="27" fill="white"/>
<path fill-rule="evenodd" clip-rule="evenodd" d="M41.3846 23.8742L33.6842 18L41.4089 30.2518L41.3846 23.8742Z" fill="#08599A"/>
<path fill-rule="evenodd" clip-rule="evenodd" d="M46.0729 18V37.5406H41.6518L33.9757 25.7203L34.1822 37.5406H29.3117V24.7133L24.7814 21.2008C24.9028 21.3447 25.0243 21.4885 25.1336 21.6444C26.3482 23.3107 26.9555 25.3007 26.9555 27.6984C26.9555 33.5965 23.2389 37.5406 17.6154 37.5406H10V37.5885L31.899 53.9643C31.899 53.9643 42.0648 52.5257 48.1377 44.6136C54.2105 36.7014 53.2925 27.1109 53.2925 27.1109L46.0729 18Z" fill="#08599A"/>
<path fill-rule="evenodd" clip-rule="evenodd" d="M21.8907 27.8422C21.8907 24.3656 20.166 22.4355 17.0688 22.4355H14.7368V33.1049H17.0445C20.2024 33.1049 21.8907 31.2587 21.8907 27.8422Z" fill="#08599A"/>
</svg>
