<svg height="20" viewBox="0 0 20 20" width="20" xmlns="http://www.w3.org/2000/svg"><g fill="#333" transform="translate(0 1)"><path d="m20 10.0148197c0-2.73193445-1.1015738-5.211082-2.8834098-7.01770495-.0139017-.0184918-.0287213-.03659016-.0455738-.05344262s-.0348853-.03167213-.0533771-.0455082c-1.8066229-1.78183606-4.2857704-2.88334426-7.0176393-2.88334426-2.73186885 0-5.21101639 1.10157377-7.01770492 2.88334426-.0184918.01390164-.03652459.02872132-.05337705.0455082-.01685246.01685246-.03167213.03488525-.04557377.05344262-1.78177049 1.80662295-2.88334426 4.2857705-2.88334426 7.01770495 0 2.6707541 1.03993443 5.1815082 2.92819672 7.0702295.09809836.0980983.22393443.1460328.34977049.1460328.12590164 0 .25180328-.048.34780328-.1440656.00546448-.0054645.5183388-.5191913 1.53862295-1.5411803.19206558-.1921312.19206558-.5034754 0-.695541-.19206557-.192-.50347541-.192-.69547541 0l-1.18268852 1.1826885c-1.37908197-1.5346229-2.17914754-3.4660328-2.28918033-5.5263606h1.67259016c.27160656 0 .49180328-.2201312.49180328-.4918033 0-.27167216-.22019672-.49180331-.49180328-.49180331h-1.67245901c.11436065-2.11619672.96183606-4.04052459 2.29226229-5.52321311l1.17947541 1.17947541c.096.096.22190164.144.34773771.144.12583606 0 .2517377-.048.3477377-.144.19206558-.19213115.19206558-.50347541 0-.69554099l-1.17940983-1.17954098c1.48275409-1.33042623 3.40701639-2.17790164 5.52321311-2.29219672v1.67252459c0 .27167213.22019672.49180328.49180328.49180328.2716066 0 .4918033-.22013115.4918033-.49180328v-1.67252459c2.1161967.11429508 4.040459.96183607 5.5232131 2.2922623l-1.1794754 1.1794754c-.1920656.19213115-.1920656.50347541 0 .69554099.096.096.2219016.144.3477377.144s.2517377-.048.3477377-.144l1.1794754-1.17947541c1.3304262 1.4827541 2.1779672 3.40701639 2.2922623 5.52321311h-1.6725246c-.2716065 0-.4918033.22013115-.4918033.49180331 0 .2716721.2201968.4918033.4918033.4918033h1.6725902c-.1100328 2.0603278-.9100328 3.9918032-2.2891148 5.5264262l-1.1826885-1.1827541c-.192-.192-.5034098-.192-.6954754 0-.1920656.1921311-.1920656.5034754 0 .695541l1.54 1.54c.096.096.2219016.144.3477377.144.0628852 0 .1258361-.012.1850492-.036s.1146885-.06.1627541-.108c1.8887213-1.8887869 2.928918-4.4 2.928918-7.0710164z"/><path d="m12.2594098 4.37495082c-.2522623-.10104918-.5384262.02144262-.6394098.27363934l-1.4211803 3.54754099c-.0662295-.00708197-.132459-.01193443-.1987541-.01193443-.69219675 0-1.31744265.38340984-1.63186888 1.00059017-.32865574.64518032-.24445902 1.41606561.22504918 2.06196721.048.0660328.10832787.1264262.17481967.1747541.38144263.2773115.80747541.4238688 1.23200003.4238688.6921967 0 1.3175082-.3834098 1.6318688-1.0005901.3286558-.6451803.244459-1.41600001-.2247213-2.06144264-.048-.06622951-.108459-.12681967-.1751475-.17534426-.0358689-.02609836-.0725246-.04990164-.1091804-.07363934l1.410164-3.52006558c.1009836-.25206557-.0215082-.53836065-.2736394-.63934426zm-1.504 6.02334428c-.1456393.285836-.4350819.4634098-.7554098.4634098-.21009836 0-.42157377-.073377-.62878689-.2181639-.23606557-.3389508-.28242622-.70642625-.12655737-1.01232789.14557377-.28583606.43501639-.46340983.75540986-.46340983.1021639 0 .2045901.01770492.3067541.05213115.0033442.00137705.0064262.00314754.009836.00452459.0107541.00426229.0215738.0077377.0323935.01121311.0937705.036.1871475.08557377.2797377.15022951.236.33895082.2824262.70649176.1266229 1.01239346z"/></g></svg>