<svg height="20" viewBox="0 0 20 20" width="20" xmlns="http://www.w3.org/2000/svg"><path d="m14.625 0h-8.75c-1.03515625 0-1.875.83984375-1.875 1.875v16.25c0 1.0351562.83984375 1.875 1.875 1.875h8.75c1.0351562 0 1.875-.8398438 1.875-1.875v-16.25c0-1.03515625-.8398438-1.875-1.875-1.875zm-4.375 18.75c-.69140625 0-1.25-.5585938-1.25-1.25s.55859375-1.25 1.25-1.25c.6914062 0 1.25.5585938 1.25 1.25s-.5585938 1.25-1.25 1.25zm4.375-4.21875c0 .2578125-.2109375.46875-.46875.46875h-7.8125c-.2578125 0-.46875-.2109375-.46875-.46875v-12.1875c0-.2578125.2109375-.46875.46875-.46875h7.8125c.2578125 0 .46875.2109375.46875.46875z" fill="#333"/></svg>