<svg fill="none" height="60" viewBox="0 0 60 60" width="60" xmlns="http://www.w3.org/2000/svg">
<path clip-rule="evenodd" d="m30 0c16.569 0 30 13.4314 30 29.9998 0 16.5683-13.431 30.0002-30 30.0002-16.5685 0-30-13.4319-30-30.0002 0-16.5684 13.4315-29.9998 30-29.9998z" fill="#ebebeb" fill-rule="evenodd" class="circleFill"/>
<path clip-rule="evenodd" d="m30 3c14.9121 0 27 12.0883 27 26.9998s-12.0879 27.0002-27 27.0002c-14.9116 0-27-12.0887-27-27.0002s12.0884-26.9998 27-26.9998z" fill="#ebebeb" fill-rule="evenodd" stroke="#fff" class="circleFill"/>
<g fill="#fff">
<path d="m42.8887 16.4691c-.0259-.11-.1035-.1941-.2136-.22-3.5209-.8608-11.6565 2.207-16.0641 6.6146-.8608.8608-1.5663 1.7087-2.1423 2.5306-1.3592-.1229-2.7183-.0194-3.8769.4855-3.2684 1.4368-4.2199 5.1907-4.4852 6.8023-.0647.3819.2524.7119.6343.6731l5.2489-.576c.0065.5048.0389.9061.0712 1.1844.0259.2718.1489.5243.3431.7184l2.0323 2.0323c.1941.1942.4465.3171.7184.343.2783.0324.6796.0648 1.1779.0712l-.576 5.2425c-.0388.3819.2912.6991.6731.6343 1.6116-.2589 5.372-1.2103 6.8023-4.4788.5049-1.1585.6084-2.5112.4919-3.8639.822-.576 1.6763-1.2815 2.5371-2.1423 4.4271-4.4011 7.4755-12.3555 6.6276-16.0512zm-10.5627 10.3491c-1.0808-1.0808-1.0808-2.8283 0-3.9092 1.0809-1.0809 2.8284-1.0809 3.9093 0 1.0808 1.0809 1.0808 2.8284 0 3.9092-1.0809 1.0809-2.8284 1.0809-3.9093 0z"/><path d="m24.2941 37.6269c-.2719.2718-.7573.4272-1.2815.5178-1.178.2006-2.2071-.8285-2.0064-2.0064.0906-.5243.2394-1.0097.5113-1.2751l.0064-.0064c.1489-.1489.0259-.3948-.1812-.3689-.6343.0776-1.2556.3624-1.741.8478-1.165 1.165-1.275 5.4885-1.275 5.4885s4.3299-.11 5.4949-1.2751c.4919-.4918.7702-1.1067.8479-1.741.0194-.2071-.233-.3301-.3754-.1812z"/></g></svg>