<svg fill="none" height="60" viewBox="0 0 60 60" width="60" xmlns="http://www.w3.org/2000/svg">
<g clip-rule="evenodd" fill-rule="evenodd">
<path d="m30 0c16.569 0 30 13.4314 30 29.9998 0 16.5683-13.431 30.0002-30 30.0002-16.5685 0-30-13.4319-30-30.0002 0-16.5684 13.4315-29.9998 30-29.9998z" fill="#ebebeb" class="circleFill"/>
<path d="m30 3c14.9121 0 27 12.0883 27 26.9998s-12.0879 27.0002-27 27.0002c-14.9116 0-27-12.0887-27-27.0002s12.0884-26.9998 27-26.9998z" fill="#ebebeb" stroke="#fff" class="circleFill"/>
<g fill="#fff">
<path d="m42.3847 23.9389-7.7004-5.9389 7.7247 12.3869z"/>
<path d="m47.0729 18v19.756h-4.4211l-7.6761-11.9506.2065 11.9506h-4.8705v-12.9687l-4.5303-3.5512c.1214.1455.2429.2909.3522.4485 1.2146 1.6847 1.8219 3.6966 1.8219 6.1207 0 5.9632-3.7166 9.9507-9.3401 9.9507h-7.6154v.0485l21.899 16.5563s10.1658-1.4544 16.2387-9.4538c6.0728-7.9994 5.1548-17.6956 5.1548-17.6956z"/>
<path d="m22.8907 27.9507c0-3.5148-1.7247-5.4662-4.8219-5.4662h-2.332v10.787h2.3077c3.1579 0 4.8462-1.8665 4.8462-5.3208z"/>
</g>
</g>
</svg>