<svg fill="none" height="60" viewBox="0 0 60 60" width="60" xmlns="http://www.w3.org/2000/svg">
<g clip-rule="evenodd" fill-rule="evenodd">
<path d="m30 0c16.569 0 30 13.4314 30 29.9998 0 16.5683-13.431 30.0002-30 30.0002-16.5685 0-30-13.4319-30-30.0002 0-16.5684 13.4315-29.9998 30-29.9998z" fill="#ebebeb" class="circleFill"/>
<path d="m30 3c14.9121 0 27 12.0883 27 26.9998s-12.0879 27.0002-27 27.0002c-14.9116 0-27-12.0887-27-27.0002s12.0884-26.9998 27-26.9998z" fill="#ebebeb" stroke="#fff" class="circleFill"/>
<path d="m41.0911 29.5391-8.8349 8.8436 2.6936 2.6955 11.5285-11.5391-11.5285-11.5391-2.6936 2.6955zm-22.7129.0001 8.8439 8.8436-2.6936 2.6955-11.5285-11.5391 11.5195-11.5392 2.6936 2.6955z" fill="#fff"/>
</g>
</svg>