
<svg width="121px" height="120px" viewBox="0 0 121 120" version="1.1" xmlns="http://www.w3.org/2000/svg" xmlns:xlink="http://www.w3.org/1999/xlink">
    <g id="Page-1" stroke="none" stroke-width="1" fill="none" fill-rule="evenodd">
        <g id="pensil-ruler" transform="translate(-83.000000, -38.000000)" fill-rule="nonzero">
            <g id="Group" transform="translate(83.000000, 22.000000)">
                <path d="M118.829856,98.8129091 L110.973666,90.8182358 L96.5690932,105.476721 C95.845128,106.213448 94.6727714,106.213448 93.9511416,105.476721 L91.3331899,102.812622 C90.6115601,102.075896 90.6115601,100.882874 91.3331899,100.148523 L105.737762,85.490038 L95.4294318,75 L64,106.978693 L87.4027594,130.791602 C90.2962849,133.736133 94.9857112,133.736133 97.8792367,130.791602 L118.829856,109.474058 C121.723381,106.529527 121.723381,101.757439 118.829856,98.8129091 Z" id="Path" fill="#3360A6"></path>
                <path d="M28.5662216,76 L60,44.0199965 L49.6949153,33.5342819 L35.2883508,48.193368 C34.9413742,48.5471111 34.4703689,48.7458995 33.9791939,48.7458995 C33.4880189,48.7458995 33.0170137,48.5471111 32.6700371,48.193368 L30.0517234,45.5291599 C29.3276581,44.792403 29.3276581,43.5993321 30.0517234,42.8649518 L44.4582879,28.2058658 L36.6010111,20.2084883 C33.7070855,17.2638372 29.0170107,17.2638372 26.123085,20.2084883 L5.16956844,41.5292828 C2.27797848,44.4739338 2.27564279,49.2462174 5.16956844,52.1908684 L28.5662216,76 Z" id="Path" fill="#3360A6"></path>
                <path d="M117.834234,44.6400623 C122.056381,40.4177632 122.05413,33.5734072 117.834234,29.351108 L107.650217,19.1667244 C103.428071,14.9444252 96.5817109,14.9444252 92.3573134,19.1667244 L82,29.5221607 L107.47692,55 L117.834234,44.6400623 Z" id="Path" fill="#CB9F9F"></path>
            </g>
            <path d="M163.781399,54 L187.892142,79 L113.297654,152.461685 L83.2598614,158 L87.8818308,129 L163.781399,54 Z M92.9928638,135 L91.1668444,146.221667 L95.9919072,150.23982 L106.978078,148 L92.9928638,135 Z M111.695608,145.899019 L179.690477,78.4817281 L173.002148,72 L105,139.352349 L111.695608,145.899019 Z M101.695608,135.899019 L169.690477,68.4817281 L163.002148,62 L95,129.352349 L101.695608,135.899019 Z" id="Combined-Shape" fill="#3360A6"></path>
        </g>
    </g>
</svg>