<svg height="180" viewBox="0 0 286 180" width="286" xmlns="http://www.w3.org/2000/svg"><g fill="none" fill-rule="nonzero"><g transform="translate(83 22)"><path d="m118.829856 98.8129091-7.85619-7.9946733-14.4045728 14.6584852c-.7239652.736727-1.8963218.736727-2.6179516 0l-2.6179517-2.664099c-.7216298-.736726-.7216298-1.929748 0-2.664099l14.4045721-14.658485-10.3083302-10.490038-31.4294318 31.978693 23.4027594 23.812909c2.8935255 2.944531 7.5829518 2.944531 10.4764773 0l20.9506193-21.317544c2.893525-2.944531 2.893525-7.716619 0-10.6611489z" fill="#3360a6"/><path d="m28.5662216 76 31.4337784-31.9800035-10.3050847-10.4857146-14.4065645 14.6590861c-.3469766.3537431-.8179819.5525315-1.3091569.5525315s-.9621802-.1987884-1.3091568-.5525315l-2.6183137-2.6642081c-.7240653-.7367569-.7240653-1.9298278 0-2.6642081l14.4065645-14.659086-7.8572768-7.9973775c-2.8939256-2.9446511-7.5840004-2.9446511-10.4779261 0l-20.95351656 21.3207945c-2.89158996 2.944651-2.89392565 7.7169346 0 10.6615856z" fill="#3360a6"/><path d="m117.834234 44.6400623c4.222147-4.2222991 4.219896-11.0666551 0-15.2889543l-10.184017-10.1843836c-4.222146-4.2222992-11.0685061-4.2222992-15.2929036 0l-10.3573134 10.3554363 25.47692 25.4778393z" fill="#cb9f9f"/></g><path d="m163.781399 54 24.110743 25-74.594488 73.461685-30.0377926 5.538315 4.6219694-29zm-70.7885352 81-1.8260194 11.221667 4.8250628 4.018153 10.9861708-2.23982zm18.7027442 10.899019 67.994869-67.4172909-6.688329-6.4817281-68.002148 67.352349zm-10-10 67.994869-67.4172909-6.688329-6.4817281-68.002148 67.352349z" fill="#3360a6"/></g></svg>