<svg height="186" viewBox="0 0 150 186" width="150" xmlns="http://www.w3.org/2000/svg" xmlns:xlink="http://www.w3.org/1999/xlink"><defs><path id="a" d="m69 0c38.108599 0 69 31.1005074 69 69.4645535 0 38.3640465-30.891401 69.4656795-69 69.4656795-38.1074814 0-69-31.101633-69-69.4656795 0-38.3640461 30.8925186-69.4645535 69-69.4645535"/><filter id="b" height="115.1%" width="115.2%" x="-7.6%" y="-5.4%"><feOffset dx="0" dy="3" in="SourceAlpha" result="shadowOffsetOuter1"/><feGaussianBlur in="shadowOffsetOuter1" result="shadowBlurOuter1" stdDeviation="3"/><feColorMatrix in="shadowBlurOuter1" result="shadowMatrixOuter1" type="matrix" values="0 0 0 0 0   0 0 0 0 0   0 0 0 0 0  0 0 0 0.23 0"/><feOffset dx="0" dy="3" in="SourceAlpha" result="shadowOffsetOuter2"/><feGaussianBlur in="shadowOffsetOuter2" result="shadowBlurOuter2" stdDeviation="3"/><feColorMatrix in="shadowBlurOuter2" result="shadowMatrixOuter2" type="matrix" values="0 0 0 0 0   0 0 0 0 0   0 0 0 0 0  0 0 0 0.16 0"/><feMerge><feMergeNode in="shadowMatrixOuter1"/><feMergeNode in="shadowMatrixOuter2"/></feMerge></filter><path id="c" d="m68.3981842 159.666778v-23.883832c1.0008029.020236 1.9892365.020236 2.9899279 0v23.883832h6.3206258l-7.8150883 14.333222-7.8159797-14.333222z"/><filter id="d" height="159%" width="245.1%" x="-72.6%" y="-21%"><feMorphology in="SourceAlpha" operator="dilate" radius="0.5" result="shadowSpreadOuter1"/><feOffset dx="0" dy="3" in="shadowSpreadOuter1" result="shadowOffsetOuter1"/><feGaussianBlur in="shadowOffsetOuter1" result="shadowBlurOuter1" stdDeviation="3"/><feComposite in="shadowBlurOuter1" in2="SourceAlpha" operator="out" result="shadowBlurOuter1"/><feColorMatrix in="shadowBlurOuter1" result="shadowMatrixOuter1" type="matrix" values="0 0 0 0 0   0 0 0 0 0   0 0 0 0 0  0 0 0 0.23 0"/><feMorphology in="SourceAlpha" operator="dilate" radius="0.5" result="shadowSpreadOuter2"/><feOffset dx="0" dy="3" in="shadowSpreadOuter2" result="shadowOffsetOuter2"/><feGaussianBlur in="shadowOffsetOuter2" result="shadowBlurOuter2" stdDeviation="3"/><feComposite in="shadowBlurOuter2" in2="SourceAlpha" operator="out" result="shadowBlurOuter2"/><feColorMatrix in="shadowBlurOuter2" result="shadowMatrixOuter2" type="matrix" values="0 0 0 0 0   0 0 0 0 0   0 0 0 0 0  0 0 0 0.16 0"/><feMerge><feMergeNode in="shadowMatrixOuter1"/><feMergeNode in="shadowMatrixOuter2"/></feMerge></filter></defs><g fill="none" fill-rule="evenodd" transform="translate(6 3)"><use fill="#000" filter="url(#b)" xlink:href="#a"/><use fill="#e37d60" fill-rule="evenodd" xlink:href="#a"/><g fill="#fff" transform="translate(29.052632 28.064516)"><path d="m15.686702 72.492804h50.1974462v9.4555831h-50.1974462zm25.0987231-25.2148884c3.4706828 0 6.2746808-2.8169758 6.2746808-6.3037221 0-3.4867462-2.803998-6.303722-6.2746808-6.303722-.5882513 0-1.1765026.0787965-1.7255372.2363895l-13.0787878-9.593477-.7843351.6894696 9.5884966 13.1393207c-.1764754.5712748-.2745173 1.1819479-.2745173 1.8320192 0 3.4867463 2.803998 6.3037221 6.2746808 6.3037221z" fill-rule="nonzero"/><path d="m40.7854251 0c-22.5300257 0-40.7854251 18.3398914-40.7854251 40.9741935 0 9.5146806 3.23538228 18.261095 8.64729446 25.2148884h11.52972594l.7843351-.7879653 4.3334514-4.353508-4.4903184-4.5111012-4.3334514 4.333809c-3.9020672-4.786889-6.2942892-10.637531-6.9021489-16.7442618h6.1178138v-6.3037221h-6.1178138c.6078597-6.1067308 3.0000817-11.9573728 6.9021489-16.7442618l4.3334514 4.333809 4.4903184-4.5111012-4.313843-4.353508c4.7648357-3.9201272 10.5885238-6.3234212 16.6671208-6.93409432v6.14612902h6.2746808v-6.14612902c6.078597.61067312 11.9022851 3.01396712 16.6671208 6.93409432l-4.313843 4.353508 4.4903184 4.5111012 4.3334514-4.333809c3.9020672 4.786889 6.2942892 10.637531 6.9021489 16.7442618h-6.1178138v6.3037221h6.1178138c-.6078597 6.1067308-3.0000817 11.9573728-6.9021489 16.7442618l-4.3334514-4.333809-4.4903184 4.5111012 4.3334514 4.353508.7843351.7879653h11.5297259c5.4119122-6.9537934 8.6472945-15.7002078 8.6472945-25.2148884 0-22.6343021-18.2553994-40.9741935-40.7854251-40.9741935z"/></g><use fill="#000" filter="url(#d)" xlink:href="#c"/><use fill="#e37d60" fill-rule="evenodd" stroke="#979797" xlink:href="#c"/><path d="m68.7772565 8.10344825c-33.5394954 0-60.7269911 27.37236875-60.7269911 61.13742305 0 33.7650547 27.1874957 61.1374227 60.7269911 61.1374227 33.5394955 0 60.7258765-27.372368 60.7258765-61.1374227 0-33.7661768-27.186381-61.13742305-60.7258765-61.13742305zm0-2.25848701c34.7760005 0 62.9703165 28.38374886 62.9703165 63.39591006 0 35.0121617-28.194316 63.3947877-62.9703165 63.3947877-34.7771152 0-62.97143126-28.383749-62.97143126-63.3947877 0-35.0121612 28.19431606-63.39591006 62.97143126-63.39591006z" fill="#fff"/></g></svg>