<svg height="432" viewBox="0 0 581 432" width="581" xmlns="http://www.w3.org/2000/svg" xmlns:xlink="http://www.w3.org/1999/xlink"><linearGradient id="a" x1="13.432244%" x2="100%" y1="29.687549%" y2="75.57752%"><stop offset="0" stop-color="#f4e3ae"/><stop offset="1" stop-color="#cd3601"/></linearGradient><g fill="none" fill-rule="nonzero"><path d="m88 227.220916c23.660789-101.560257 114.754132-177.220916 223.518968-177.220916 126.74935 0 229.5 102.75065 229.5 229.5 0 26.741078-4.573523 52.413952-12.981032 76.279084 3.912366-16.79322 5.981032-34.29457 5.981032-52.279084 0-126.74935-102.75065-229.5-229.5-229.5-100.008272 0-185.075943 63.96832-216.518968 153.220916z" fill="url(#a)"/><g fill="#a71307"><circle cx="290.5" cy="331.5" r="17.5" transform="matrix(.8660254 .5 -.5 .8660254 204.66962 -100.837421)"/><path d="m348.417299 137.661143 4.915862 207.222478-18.477815 1.150021z" transform="matrix(.8660254 .5 -.5 .8660254 167.023585 -139.64572)"/></g></g></svg>