<svg height="180" viewBox="0 0 286 180" width="286" xmlns="http://www.w3.org/2000/svg"><g fill="#3360a6" fill-rule="evenodd" transform="translate(80 28)"><path d="m124.340528 1.97841727c-.119904-.50959233-.479617-.89928058-.989209-1.01918466-16.306954-3.98681055-53.9868106 10.22182259-74.4004797 30.63549159-3.9868105 3.9868106-7.2541966 7.9136691-9.9220623 11.7206235-6.2949641-.5695443-12.5899281-.089928-17.9556355 2.2482015-15.1378897 6.6546762-19.54436452 24.0407673-20.77338131 31.5047961-.29976019 1.7685852 1.16906475 3.2973621 2.93764988 3.117506l24.31055153-2.6678657c.029976 2.3381295.1798561 4.1966427.3297362 5.4856115.1199041 1.2589928.6894485 2.4280576 1.5887291 3.3273382l9.41247 9.41247c.8992806.8992806 2.0683453 1.4688249 3.3273381 1.588729 1.2889688.1498801 3.147482.2997602 5.4556355.3297362l-2.6678657 24.2805755c-.1798561 1.768585 1.3489209 3.23741 3.117506 2.93765 7.4640288-1.199041 24.8800959-5.605516 31.5047962-20.743405 2.3381295-5.3657078 2.8177458-11.6306958 2.2781774-17.8956838 3.8069544-2.6678657 7.763789-5.9352518 11.7505995-9.9220624 20.5035971-20.383693 34.6223021-57.2242206 30.6954441-74.34052753zm-48.9208637 47.93165463c-5.0059952-5.0059952-5.0059952-13.0995203 0-18.1055155s13.0995204-5.0059952 18.1055156 0 5.0059952 13.0995203 0 18.1055155-13.0995204 5.0059952-18.1055156 0z" fill-rule="nonzero"/><path d="m38.2194245 99.970024c-1.2589928 1.258993-3.5071943 1.978417-5.9352518 2.398082-5.4556355.929256-10.2218226-3.8369309-9.292566-9.2925664.4196643-2.4280576 1.1091127-4.676259 2.3681055-5.9052758l.029976-.029976c.6894485-.6894485.1199041-1.8285372-.8393285-1.7086331-2.9376499.3597122-5.8153477 1.6786571-8.0635491 3.9268585-5.3956835 5.3956834-5.9052758 25.4196638-5.9052758 25.4196638s20.0539568-.509592 25.4496403-5.905275c2.2781774-2.278178 3.5671462-5.1259 3.9268585-8.063549.089928-.9592331-1.0791367-1.5287775-1.7386091-.839329z"/></g></svg>