<svg height="60" viewBox="0 0 60 60" width="60" xmlns="http://www.w3.org/2000/svg"><g fill="none"><circle cx="30" cy="30" fill="#08599a" r="30"/><circle cx="30" cy="30" fill="#fff" r="27"/><path d="m35.9433646 33.6000417h-1.2761146l-.4791354-.4000209c1.5160104-1.8398333 2.4734792-4.1601875 2.4734792-6.7999895-.000073-5.760198-4.6275105-10.4000313-10.3705-10.4000313-5.6643855 0-10.2910938 4.6398333-10.2910938 10.4000313 0 5.7601979 4.6267083 10.3999583 10.3705729 10.3999583 2.5528854 0 4.9460104-.9600938 6.7805938-2.47975l.4784062.4000937v1.2797605l7.9773021 7.9999062 2.393125-2.3999792zm-9.5727917 0c-3.9886875 0-7.1795937-3.2000938-7.1795937-7.2000105 0-4.0000625 3.1909062-7.1999374 7.1795937-7.1999374 3.9885417 0 7.1795208 3.1998749 7.1795208 7.1999374 0 3.9999167-3.1909791 7.2000105-7.1795208 7.2000105z" fill="#08599a"/></g></svg>