<svg height="16" viewBox="0 0 16 16" width="16" xmlns="http://www.w3.org/2000/svg"><path d="m8 0c4.4193548 0 8 3.58064516 8 8 0 4.4193548-3.5806452 8-8 8-4.41935484 0-8-3.5806452-8-8 0-4.41935484 3.58064516-8 8-8zm-.93225806 4.63225806 2.43548387 2.33548388h-5.89032258c-.42903226 0-.77419355.34516129-.77419355.77419354v.51612904c0 .42903225.34516129.77419354.77419355.77419354h5.89032258l-2.43548387 2.33548384c-.31290323.3-.31935484.8-.01290323 1.1064516l.35483871.351613c.30322581.3032258.79354839.3032258 1.09354839 0l4.28064519-4.2774194c.3032258-.30322581.3032258-.79354839 0-1.09354839l-4.28064519-4.28387097c-.30322581-.3032258-.79354839-.3032258-1.09354839 0l-.35483871.35161291c-.30645161.30967741-.3.80967741.01290323 1.10967741z" fill="#333"/></svg>