<svg width="60" height="60" viewBox="0 0 60 60" fill="none" xmlns="http://www.w3.org/2000/svg">
<circle cx="30" cy="30" r="30" fill="#08599A"/>
<circle cx="30" cy="30" r="27" fill="white"/>
<path d="M42.8888 16.4691C42.863 16.3591 42.7853 16.275 42.6753 16.2491C39.1544 15.3883 31.0188 18.4561 26.6112 22.8637C25.7503 23.7245 25.0449 24.5724 24.4688 25.3943C23.1097 25.2714 21.7505 25.3749 20.592 25.8798C17.3235 27.3166 16.3721 31.0705 16.1067 32.6821C16.042 33.064 16.3591 33.394 16.741 33.3552L21.99 32.7792C21.9964 33.284 22.0288 33.6853 22.0612 33.9636C22.0871 34.2354 22.21 34.4879 22.4042 34.682L24.4365 36.7143C24.6306 36.9085 24.8831 37.0314 25.1549 37.0573C25.4332 37.0897 25.8345 37.1221 26.3328 37.1285L25.7568 42.371C25.718 42.7529 26.0481 43.07 26.4299 43.0053C28.0415 42.7464 31.8019 41.795 33.2323 38.5265C33.7371 37.368 33.8407 36.0153 33.7241 34.6626C34.5461 34.0866 35.4005 33.3811 36.2613 32.5203C40.6883 28.1192 43.7367 20.1648 42.8888 16.4691ZM32.3261 26.8182C31.2453 25.7374 31.2453 23.9899 32.3261 22.909C33.407 21.8281 35.1545 21.8281 36.2354 22.909C37.3162 23.9899 37.3162 25.7374 36.2354 26.8182C35.1545 27.8991 33.407 27.8991 32.3261 26.8182Z" fill="#08599A"/>
<path d="M24.2941 37.6269C24.0222 37.8987 23.5368 38.0541 23.0126 38.1447C21.8346 38.3453 20.8055 37.3162 21.0062 36.1383C21.0968 35.614 21.2456 35.1286 21.5175 34.8632L21.5239 34.8568C21.6728 34.7079 21.5498 34.462 21.3427 34.4879C20.7084 34.5655 20.0871 34.8503 19.6017 35.3357C18.4367 36.5007 18.3267 40.8242 18.3267 40.8242C18.3267 40.8242 22.6566 40.7142 23.8216 39.5492C24.3135 39.0573 24.5918 38.4424 24.6695 37.8081C24.6889 37.601 24.4365 37.478 24.2941 37.6269Z" fill="#08599A"/>
</svg>
