<svg height="180" viewBox="0 0 286 180" width="286" xmlns="http://www.w3.org/2000/svg"><path d="m139 47.7815215c0 26.3888242-21.392426 47.7809785-47.78125 47.7809785-3.0460547 0-6.0242383-.2883164-8.9120176-.8331855l-6.5188828 7.3338785c-1.2364567 1.391025-3.0087651 2.186874-4.8698867 2.186807h-10.1054629v10.859375c0 3.598525-2.9170996 6.515625-6.515625 6.515625h-10.859375v10.859375c0 3.598525-2.9170996 6.515625-6.515625 6.515625h-30.40625c-3.59852539 0-6.515625-2.9171-6.515625-6.515625v-21.191799c0-1.727998.68658398-3.38541 1.90826367-4.607361l43.92671483-43.926715c-1.5537051-4.7113398-2.3974785-9.7454746-2.3974785-14.97725 0-26.3888242 21.3921543-47.78097852 47.7809785-47.78125 26.4667405-.00027148 47.7815215 21.3145098 47.7815215 47.7815215zm-47.78125-13.0315215c0 7.1970508 5.8341992 13.03125 13.03125 13.03125 7.197051 0 13.03125-5.8341992 13.03125-13.03125s-5.834199-13.03125-13.03125-13.03125c-7.1970508 0-13.03125 5.8341992-13.03125 13.03125z" fill="#221c67" transform="translate(65 27)"/></svg>