<svg height="20" viewBox="0 0 20 20" width="20" xmlns="http://www.w3.org/2000/svg"><path d="m5.87203375 10.8752344c-1.4104412.0907031-2.69045527.6278906-3.4167692 2.5417968-.08261558.2183204-.28124451.3508594-.51291967.3508594-.39057831 0-1.59817191-.9727734-1.94234488-1.2076172.00035156 2.8951172 1.33380207 5.4397266 4.50026367 5.4397266 2.66690103 0 4.49991211-1.5387891 4.49991211-4.2254297 0-.1093359-.02285112-.21375-.0341009-.3209766zm10.22569875-10.8752344c-.5329584 0-1.0325189.23589844-1.4136052.57832031-7.18614874 6.41953125-7.93390758 6.57035156-7.93390758 8.46 0 .48164063.11425558.94078125.30690807 1.36054689l2.24362805 1.8696094c.25347162.0632812.51467745.1065234.78713306.1065234 2.183512 0 3.4491123-1.5985547 7.4234488-9.01617188.259448-.50449218.4886623-1.04941406.4886623-1.61683593 0-1.01636719-.9140446-1.74199219-1.9022675-1.74199219z" transform="translate(1 1)"/></svg>