<svg height="250" viewBox="0 0 350 250" width="350" xmlns="http://www.w3.org/2000/svg" xmlns:xlink="http://www.w3.org/1999/xlink"><defs><path id="a" d="m5 0h340c2.761424 0 5 2.23857625 5 5v23.125h-350v-23.125c0-2.76142375 2.23857625-5 5-5z"/><filter id="b" height="132%" width="102.6%" x="-1.3%" y="-16%"><feOffset dx="0" dy="0" in="SourceAlpha" result="shadowOffsetOuter1"/><feGaussianBlur in="shadowOffsetOuter1" result="shadowBlurOuter1" stdDeviation="1.5"/><feColorMatrix in="shadowBlurOuter1" type="matrix" values="0 0 0 0 0   0 0 0 0 0   0 0 0 0 0  0 0 0 0.5 0"/></filter></defs><g fill="none" fill-rule="evenodd"><path d="m0 28h350v217c0 2.761424-2.238576 5-5 5h-340c-2.76142375 0-5-2.238576-5-5z" fill="#fff" fill-rule="nonzero"/><use fill="#000" filter="url(#b)" xlink:href="#a"/><use fill="#f2f2f2" fill-rule="evenodd" xlink:href="#a"/><g transform="translate(159 126)"><path d="m5.07112419 84.114624 39.22269431-20.267985 33.7091873 25.6648763 26.8589562-48.0155029 42.001471-36.31522627" stroke="#5ad3a1" stroke-width="1.96"/><g fill="#25f4db"><ellipse cx="4.902597" cy="84.208333" rx="4.902597" ry="4.895833"/><ellipse cx="44.123377" cy="63.645833" rx="4.902597" ry="4.895833"/><ellipse cx="78.441558" cy="89.104167" rx="4.902597" ry="4.895833"/><ellipse cx="104.915584" cy="41.125" rx="4.902597" ry="4.895833"/><ellipse cx="146.097403" cy="4.895833" rx="4.902597" ry="4.895833"/></g></g><circle cx="19.53125" cy="13.28125" fill="#dc3737" r="3.90625"/><circle cx="33.59375" cy="13.28125" fill="#caf168" r="3.90625"/><circle cx="47.65625" cy="13.28125" fill="#24d93a" r="3.90625"/><g fill-rule="nonzero" transform="translate(52 40)"><circle cx="66" cy="66" fill="#73a46f" r="66"/><path d="m66 65.9995812-1.4042553-65.9995812c20.8149019.50149463 37.2482633 7.33626954 49.3000843 20.5043247 12.051821 13.1680552 18.077732 28.3331407 18.077732 45.4952565z" fill="#d86969"/><path d="m66 66-.7648366-65.9961156c-6.1702531-.07656436-12.7191752.97872477-19.6467661 3.16586739-6.927591 2.18714262-13.2301064 5.4336377-18.9075462 9.73948521z" fill="#ddd248"/></g></g></svg>