<svg height="250" viewBox="0 0 250 250" width="250" xmlns="http://www.w3.org/2000/svg"><g fill="none" fill-rule="evenodd"><path d="m0 28h250v217c0 2.761424-2.238576 5-5 5h-240c-2.76142375 0-5-2.238576-5-5z" fill="#fff" fill-rule="nonzero"/><path d="m5 0h240c2.761424 0 5 2.23857625 5 5v23.125h-250v-23.125c0-2.76142375 2.23857625-5 5-5z" fill="#4d7a95"/><circle cx="19.53125" cy="13.28125" fill="#dc3737" r="3.90625"/><circle cx="33.59375" cy="13.28125" fill="#caf168" r="3.90625"/><circle cx="47.65625" cy="13.28125" fill="#24d93a" r="3.90625"/><path d="m99.6270292 198.954041 28.0533178-14.44633 24.109882 18.29305 19.21038-34.223816 30.040787-25.884257" stroke="#5ad3a1" stroke-width="1.4"/><g fill="#50e3c2"><ellipse cx="99.506494" cy="199.020833" rx="3.506494" ry="3.489583"/><ellipse cx="127.558442" cy="184.364583" rx="3.506494" ry="3.489583"/><ellipse cx="152.103896" cy="202.510417" rx="3.506494" ry="3.489583"/><ellipse cx="171.038961" cy="168.3125" rx="3.506494" ry="3.489583"/><ellipse cx="200.493506" cy="142.489583" rx="3.506494" ry="3.489583"/></g><circle cx="80" cy="92" fill="#73a46f" fill-rule="nonzero" r="47"/><path d="m80 91.9997018-1-46.9996712c14.8227332.3571046 26.525278 5.2242826 35.107636 14.601534 8.582357 9.3772514 12.873536 20.1766305 12.873536 32.3981372z" fill="#d86969" fill-rule="nonzero"/><path d="m80 92-.5446563-46.9972338c-4.3939682-.0545231-9.0575945.6969706-13.990879 2.2544813-4.9332844 1.5575106-9.4214393 3.8694086-13.4644647 6.935694z" fill="#ddd248" fill-rule="nonzero"/></g></svg>