<svg height="100" viewBox="0 0 100 100" width="100" xmlns="http://www.w3.org/2000/svg"><path d="m50 95c-24.8528137 0-45-20.1471863-45-45s20.1471863-45 45-45 45 20.1471863 45 45-20.1471863 45-45 45zm17.0852359-7.265c2.0801728 0 3.817852-1.0709893 5.2130898-3.213s2.2957869-5.0744814 2.7016743-8.7975c-1.9787009.8160041-4.1095776 1.224-6.3926941 1.224-2.536796 0-4.9720837-.4717453-7.305936-1.41525-2.3338524-.9435047-5.1496538-2.3077411-8.4474886-4.09275-2.1309087-1.1730059-3.9446907-2.1037466-5.4414003-2.79225-1.4967097-.6885034-2.9553455-1.2112482-4.3759513-1.56825l11.7199391-54.927c-1.3191339-.1020005-2.3338371-.153-3.04414-.153-4.1603455 0-8.3206286.9562404-12.4809742 2.86875-4.1603455 1.9125096-7.572285 4.4114846-10.2359208 7.497-2.6636359 3.0855154-3.9954338 6.2602337-3.9954338 9.52425 0 2.6520133.6722409 4.5517443 2.0167428 5.69925s3.3865921 1.72125 6.1263318 1.72125c0-.1020005-.1775731-.5227463-.5327245-1.26225-.3551515-.7395037-.5327245-2.0527406-.5327245-3.93975 0-4.0800204.9259166-7.5352358 2.7777777-10.36575 1.8518612-2.8305142 4.4774057-4.9342431 7.8767124-6.31125l-11.3394216 53.0145c.4058873-.0510003.9893417-.0765 1.7503805-.0765 2.1816446 0 4.3252051.4334957 6.4307458 1.3005s4.0588444 1.9252438 5.8599696 3.17475c1.8011251 1.2495062 3.9700532 2.8942398 6.5068493 4.93425 3.3993067 2.7030135 6.2024242 4.7047435 8.4094368 6.00525s4.4520434 1.95075 6.7351598 1.95075z" fill="#4d7a95" fill-rule="evenodd"/></svg>