<svg height="100" viewBox="0 0 250 100" width="250" xmlns="http://www.w3.org/2000/svg" xmlns:xlink="http://www.w3.org/1999/xlink"><linearGradient id="a"><stop offset="0" stop-color="#5ad3a1"/><stop offset="1" stop-color="#4d7a95"/></linearGradient><linearGradient id="b" x1="28.382224%" x2="241.148998%" xlink:href="#a" y1="0%" y2="92.874472%"/><linearGradient id="c" x1="-59.180379%" x2="100%" xlink:href="#a" y1="0%" y2="100%"/><g fill="none" fill-rule="evenodd" transform="translate(3 2)"><path d="m45 95c-24.8528137 0-45-20.1471863-45-45s20.1471863-45 45-45 45 20.1471863 45 45-20.1471863 45-45 45zm17.3045-7.265c2.0910105 0 3.837743-1.0709893 5.24025-3.213s2.307748-5.0744814 2.71575-8.7975c-1.9890099.8160041-4.1309885 1.224-6.426 1.224-2.5500128 0-4.9979883-.4717453-7.344-1.41525s-5.1764834-2.3077411-8.4915-4.09275c-2.1420107-1.1730059-3.9652425-2.1037466-5.46975-2.79225s-2.9707429-1.2112482-4.39875-1.56825l11.781-54.927c-1.3260066-.1020005-2.3459964-.153-3.06-.153-4.1820209 0-8.3639791.9562404-12.546 2.86875s-7.6117366 4.4114846-10.28925 7.497-4.01625 6.2602337-4.01625 9.52425c0 2.6520133.6757432 4.5517443 2.02725 5.69925s3.4042362 1.72125 6.15825 1.72125c0-.1020005-.1784982-.5227463-.5355-1.26225s-.5355-2.0527406-.5355-3.93975c0-4.0800204.9307407-7.5352358 2.79225-10.36575s4.5007329-4.9342431 7.91775-6.31125l-11.3985 53.0145c.408002-.0510003.9944962-.0765 1.7595-.0765 2.193011 0 4.3477394.4334957 6.46425 1.3005s4.0799909 1.9252438 5.8905 3.17475 3.9907372 2.8942398 6.54075 4.93425c3.4170171 2.7030135 6.2347389 4.7047435 8.45325 6.00525s4.4752385 1.95075 6.77025 1.95075z" fill="url(#b)"/><text fill="url(#c)" font-family="Lobster-Regular, Lobster" font-size="76.5"><tspan x="90" y="77">uweb</tspan></text></g></svg>