<svg fill="none" height="60" viewBox="0 0 60 60" width="60" xmlns="http://www.w3.org/2000/svg">
<g clip-rule="evenodd" fill-rule="evenodd">
<path d="m30 0c16.569 0 30 13.4314 30 29.9998 0 16.5683-13.431 30.0002-30 30.0002-16.5685 0-30-13.4319-30-30.0002 0-16.5684 13.4315-29.9998 30-29.9998z" fill="#ebebeb" class="circleFill"/>
<path d="m30 3c14.9121 0 27 12.0883 27 26.9998s-12.0879 27.0002-27 27.0002c-14.9116 0-27-12.0887-27-27.0002s12.0884-26.9998 27-26.9998z" fill="#ebebeb" stroke="#fff" class="circleFill"/>
<g fill="#fafbfc">
<path d="m11.9417 43.1198h36.3106v-1.7285h-36.3106z"/>
<path d="m45.5881 18.0349.6117.8526-12.2658 8.3212-7.3352-10.2087-16.5988 11.4057.0039 1.8462 16.2434-11.1572 7.3293 10.1411 13.5052-9.1178.6161.8594 2.1079-3.6868z"/>
<path d="m12.1357 39.8548h6.0195v-14.0201l-6.0195 4.2883z"/><path d="m46.6428 22.1855-5.3808 3.8073v14.0541h6.0194v-16.9581z"/>
<path d="m34.0774 30.6723v9.3746h6.0194v-13.6361l-6.0025 4.2495z"/>
<path d="m19.5144 25.537v14.5099h6.0194v-18.8216z"/>
<path d="m26.6987 21.9935v17.8614h6.0194v-9.1646z"/>
</g>
</g>
</svg>