<svg height="277" viewBox="0 0 502 277" width="502" xmlns="http://www.w3.org/2000/svg"><g fill="none" fill-rule="evenodd" transform="translate(.007988 -.443153)"><path d="m8.05140574 276.668h485.55918826c3.970888 0 7.220406-2.419 7.220406-5.375v-265.216c0-2.956-3.249518-5.375-7.220406-5.375h-485.55918826c-3.97223066 0-7.22040574 2.419-7.22040574 5.375v265.216c0 2.956 3.24817508 5.375 7.22040574 5.375" fill="#fff"/><path d="m493.816576.702h-485.76215213c-3.97389105 0-7.22342387 2.419-7.22342387 5.375v13.045h500.209v-13.045c0-2.956-3.250877-5.375-7.223424-5.375" fill="#3f76a5"/><g fill="#c4f4e0"><path d="m22.18 9.809c-.009 2.23-1.825 4.031-4.055 4.022-2.23-.01-4.031-1.825-4.021-4.055.009-2.231 1.824-4.031 4.054-4.022 2.231.009 4.031 1.825 4.022 4.055"/><path d="m34.743 9.86c-.009 2.231-1.824 4.031-4.055 4.022-2.229-.009-4.03-1.824-4.021-4.055.009-2.23 1.824-4.031 4.055-4.021 2.23.009 4.03 1.824 4.021 4.054"/><path d="m47.307 9.912c-.01 2.23-1.825 4.031-4.055 4.022-2.231-.01-4.031-1.825-4.022-4.055.009-2.231 1.825-4.031 4.055-4.022s4.031 1.825 4.022 4.055"/></g><g transform="translate(50 37)"><path d="m.801 76.529h400v-75.678h-400z" fill="#dedede"/><path d="m1 135.583h70.271v-44.583h-70.271z" fill="#c4f4e0"/><g fill="#dedede"><path d="m.801 168.069h400v-6.218h-400z"/><path d="m.801 205.196h400v-6.218h-400z"/><path d="m.801 220.299h400v-6.218h-400z"/><path d="m.801 152.337h400v-6.219h-400z"/></g><path d="m111 135.583h70.271v-44.583h-70.271z" fill="#c4f4e0"/><path d="m221 135.583h70.272v-44.583h-70.272z" fill="#c4f4e0"/><path d="m331 135.583h70.271v-44.583h-70.271z" fill="#c4f4e0"/></g></g></svg>