<svg height="432" viewBox="0 0 581 432" width="581" xmlns="http://www.w3.org/2000/svg"><g fill="none"><g transform="translate(38 23)"><rect fill="#91b8f6" height="262" rx="21" width="418" x="17"/><rect fill="#fff" height="233" rx="2" width="372" x="40" y="15"/><path d="m13.7838796 248h335.2161204c8.284271 0 15 6.715729 15 15v7.468368c0 8.284271-6.715729 15-15 15h-328.5649377c-5.7670436 0-11.0234168-3.306281-13.52070765-8.504581l-4.91435465-10.229603c-3.12650462-6.508057-.38521479-14.318412 6.12284221-17.444917 1.76652159-.848646 3.70124179-1.289267 5.66103739-1.289267z" fill="#91b8f6"/></g><rect fill="#fff" height="279" rx="21" width="141" x="388" y="114"/><rect fill="#3360a6" height="279" rx="21" width="141" x="402" y="130"/><g fill="#fff"><circle cx="453.5" cy="149.5" r="7.5"/><rect height="196" rx="2" width="113" x="416" y="164"/><rect height="10" rx="5" width="27" x="473" y="144"/><circle cx="472.5" cy="381.5" r="11.5"/></g></g></svg>