<svg height="20" viewBox="0 0 20 20" width="20" xmlns="http://www.w3.org/2000/svg"><path d="m18.7601739 1.67145254c-.0457124-.21444296-.2144967-.38318496-.4289934-.42888592-1.1322611-.24256662-2.0183785-.24256662-2.9009796-.24256662-3.6288617 0-5.80547548 1.94053298-7.43002406 4.49978663h-3.66402513c-.63997368 0-1.22368594.36209221-1.50850939.93159645l-1.73707142 3.47327281c-.28130711.56247331.1265882 1.21986401.75601286 1.21986401h3.3440383c-.20746399.4499787-.41844433.8964419-.632941 1.3253278-.10900651.2179584-.06681044.4781023.10549017.6503598l2.23639154 2.2358315c.1723006.1722574.43250968.2144429.6505227.1054637.42899334-.2144429.87556838-.421855 1.32565976-.629267v3.3432008c0 .6257516.66107172 1.0335448 1.22016957.7558236l3.4706265-1.7366364c.5731633-.2847522.9318298-.8718337.9318298-1.5081317v-3.6701384c2.5528621-1.6276572 4.5009138-3.81075683 4.5009138-7.4211325.0035164-.8858955.0035164-1.77179099-.239111-2.90376856zm-3.5496476 5.01275799c-1.0460526 0-1.8947368-.84868421-1.8947368-1.89473685 0-1.04605263.8486842-1.89473684 1.8947368-1.89473684s1.8947369.84868421 1.8947369 1.89473684c0 1.04605264-.8486843 1.89473685-1.8947369 1.89473685z" fill="#d0021b"/></svg>