<svg height="20" viewBox="0 0 20 20" width="20" xmlns="http://www.w3.org/2000/svg"><path d="m16.625 8.75h-.9375v-2.8125c0-3.2734375-2.6640625-5.9375-5.9375-5.9375s-5.9375 2.6640625-5.9375 5.9375v2.8125h-.9375c-1.03515625 0-1.875.83984375-1.875 1.875v7.5c0 1.0351562.83984375 1.875 1.875 1.875h13.75c1.0351562 0 1.875-.8398438 1.875-1.875v-7.5c0-1.03515625-.8398438-1.875-1.875-1.875zm-4.0625 0h-5.625v-2.8125c0-1.55078125 1.26171875-2.8125 2.8125-2.8125 1.5507812 0 2.8125 1.26171875 2.8125 2.8125z" fill="#333"/></svg>