<svg height="250" viewBox="0 0 350 250" width="350" xmlns="http://www.w3.org/2000/svg" xmlns:xlink="http://www.w3.org/1999/xlink"><defs><path id="a" d="m6.5 0h337c3.589851 0 6.5 2.91014913 6.5 6.5v21.625h-350v-21.625c0-3.58985087 2.91014913-6.5 6.5-6.5z"/><filter id="b" height="132%" width="102.6%" x="-1.3%" y="-16%"><feOffset dx="0" dy="0" in="SourceAlpha" result="shadowOffsetOuter1"/><feGaussianBlur in="shadowOffsetOuter1" result="shadowBlurOuter1" stdDeviation="1.5"/><feColorMatrix in="shadowBlurOuter1" type="matrix" values="0 0 0 0 0   0 0 0 0 0   0 0 0 0 0  0 0 0 0.5 0"/></filter></defs><g fill="none" fill-rule="evenodd"><path d="m0 28h350v217c0 2.761424-2.238576 5-5 5h-340c-2.76142375 0-5-2.238576-5-5z" fill="#fff" fill-rule="nonzero"/><use fill="#000" filter="url(#b)" xlink:href="#a"/><use fill="#f2f2f2" fill-rule="evenodd" xlink:href="#a"/><ellipse cx="19.6875" cy="13.28125" fill="#dc3737" rx="3.9375" ry="3.90625"/><ellipse cx="33.8625" cy="13.28125" fill="#caf168" rx="3.9375" ry="3.90625"/><ellipse cx="48.0375" cy="13.28125" fill="#24d93a" rx="3.9375" ry="3.90625"/><g fill="#9c9393"><path d="m41 166h268.709035v15h-268.709035z"/><path d="m41 83h268.709035v15h-268.709035z"/><path d="m41 110h268.709035v15h-268.709035z"/><path d="m41 138h268.709035v15h-268.709035z"/></g><path d="m17 39h315.68v27h-315.68z" fill="#4d7a95"/><path d="m72.576 154h16.128v8h-16.128z" fill="#979797" transform="matrix(.52991926 -.8480481 .8480481 .52991926 -96.084289 142.659355)"/><path d="m72.9603014 159.547089-47.4600242 71.573502c-.8253188 1.724876.0506684 3.541113 2.6279617 5.448711 2.5772933 1.907597 4.6083515 1.907597 6.0931745 0l48.5484085-72.018782c1.6982683-2.561837.9774588-4.731986-2.1624283-6.510449-3.1398872-1.778462-5.6889179-1.276123-7.6470922 1.507018z" fill="#000" stroke="#000" stroke-width=".9"/><ellipse cx="104.832" cy="119" fill="#f2f2f2" fill-opacity=".4" rx="36.288" ry="36" stroke="#000" stroke-width="2.7"/></g></svg>