
<svg width="1350px" height="1045px" viewBox="0 0 1350 1045" version="1.1" xmlns="http://www.w3.org/2000/svg" xmlns:xlink="http://www.w3.org/1999/xlink">
    <defs>
        <filter x="-3.3%" y="-58.5%" width="106.6%" height="217.0%" filterUnits="objectBoundingBox" id="filter-1">
            <feGaussianBlur stdDeviation="9" in="SourceGraphic"></feGaussianBlur>
        </filter>
    </defs>
    <g id="Page-1" stroke="none" stroke-width="1" fill="none" fill-rule="evenodd">
        <g id="Artboard-2" transform="translate(-300.000000, -229.000000)">
            <ellipse id="Oval" stroke="#979797" fill="#D8D8D8" fill-rule="nonzero" opacity="0.435523624" filter="url(#filter-1)" cx="1021" cy="1227.5" rx="418" ry="23.5"></ellipse>
            <path d="M331,877.554169 C214.560658,698.981176 443.9375,452.679279 736.96875,391.845946 C1030,331.012614 857.851203,689.892307 1110.9256,634.700058 C1364,579.507809 1419.81221,96.1682934 1557.18333,391.845946 C1694.55446,687.5236 1733.57684,1231.97029 1284.77569,1231.97029 C835.974539,1231.97029 447.439342,1056.12716 331,877.554169 Z" id="Path-24" fill="#4D7A95" fill-rule="nonzero"></path>
            <g id="369122-PBBMKF-735" transform="translate(555.000000, 229.000000)">
                <polyline id="Fill-12" fill="#E5EEEE" points="81.9891815 739 0 716.929197 114.437125 687 121 727.207461 81.9891815 739"></polyline>
                <polyline id="Fill-13" fill="#B8CCDC" points="29.7647215 160 0 192.944258 82.2701162 742.108504 125.258813 754 153 629.664921"></polyline>
                <polygon id="Fill-14" fill="#4BB086" points="0 192.664125 15.8966716 299 45 269.5328 38.5419771 196.210987 29.1554893 160"></polygon>
                <polyline id="Fill-15" fill="#D6E6EF" points="840 558.535314 130.033198 757 35 160.74302 766.123985 45 840 558.535314"></polyline>
                <polyline id="Fill-16" fill="#4D7A95" points="478 335.641924 117.67626 403 114 383.358076 474.321229 316 478 335.641924"></polyline>
                <polyline id="Fill-17" fill="#4D7A95" points="468 286.641924 107.67626 354 104 334.355567 464.321229 267 468 286.641924"></polyline>
                <polygon id="Fill-18" fill="#5AD3A1" points="763.550892 45 35 160.418752 51.0408739 271 778 148.977311"></polygon>
                <polyline id="Fill-19" fill="#FFFFFE" points="739 124.986579 557.556038 156 552 121.010831 733.441465 90 739 124.986579"></polyline>
                <polyline id="Fill-20" fill="#FFFFFE" points="527 155.706833 324.563596 190 319 155.290598 521.436404 121 527 155.706833"></polyline>
                <path d="M238.689162,500 C219.299785,500 227.900916,464.840451 227.900916,464.840451 L299.659137,422.197042 L358,361 C358,361 332.849441,435.790792 272.407829,482.898347 C256.363901,495.405 245.697585,500 238.689162,500" id="Fill-21" fill="#B6C7DC"></path>
                <polyline id="Fill-22" fill="#B6C7DC" points="573.919672 427 552 205 587.65852 415.89847 737.314453 380.107893 739 386.313939 573.919672 427"></polyline>
                <path d="M205.03,132.3 C205.009,132.261 205,132.243 205,132.243 L206.926,132 L205.03,132.3" id="Fill-23" fill="#D1E1EB"></path>
                <path d="M298,253 C290.947271,249.568093 282.648782,241.568093 274,231.18677 L286.420598,229 L298,253" id="Fill-24" fill="#B6C7DC"></path>
                <path d="M268.894337,229 C239.55223,194.85629 206.041063,133.405944 205,131.489603 L206.519519,131.244547 L231.752673,128 L281,226.934174 L268.894337,229" id="Fill-25" fill="#596DA5"></path>
                <path d="M302.455886,118 C302.156025,117.869173 302,117.799248 302,117.799248 L323,115 L302.455886,118" id="Fill-26" fill="#D1E1EB"></path>
                <path d="M390.62917,146 C353.046024,141.875558 307.086031,120.67543 302,118.284736 L322.869071,115 L420.05337,133.409337 L423,140.68021 L390.62917,146" id="Fill-27" fill="#596DA5"></path>
                <path d="M433.123474,156 C428.578019,156 420.341927,144.325062 420.341927,144.325062 C415.628223,145.409326 410.466757,145.893422 404.995929,145.893422 C400.816825,145.893422 396.464043,145.610325 392,145.097918 L427.476255,139 L434,155.827311 C433.72863,155.943381 433.432836,156 433.123474,156" id="Fill-28" fill="#D8E1EB"></path>
                <polyline id="Fill-29" fill="#4D7A95" points="735.896072 180 764 374.251053 587.580543 416 552 207.7613 735.896072 180"></polyline>
                <polyline id="Fill-30" fill="#9B81AE" points="727.554881 347 690 255.768994 703.022457 250 742 332.697137 727.554881 347"></polyline>
                <polyline id="Fill-31" fill="#4D7A95" points="607 469.039859 775.379334 427 780 458.809854 612.910752 503 607 469.039859"></polyline>
                <polygon id="Fill-32" fill="#4D7A95" points="779.459394 486 784 517.808814 619.80834 562 614 528.038485"></polygon>
                <polyline id="Fill-33" fill="#4D7A95" points="563.783109 531 573 584.68277 358.425501 646 347 588.676022 563.783109 531"></polyline>
                <path d="M421.421652,135.045716 C421.421652,135.045716 429.369162,151.255606 434.047858,148.733502 C438.726553,146.21371 434.047858,135.156679 434.047858,135.156679 L465,129.37734 C465,129.37734 442.682748,117.333197 423.554033,118.02903 L413,124.938807 L421.421652,135.045716" id="Fill-34" fill="#F7C061"></path>
                <path d="M756.498745,777 C700.99438,777 656,765.358135 656,751.001233 C656,736.641865 700.99438,725 756.498745,725 C812.00562,725 857,736.641865 857,751.001233 C857,765.358135 812.00562,777 756.498745,777" id="Fill-35" fill="#E5EEEE"></path>
                <path d="M805.553225,729.816768 L775.689839,744.4 C774.391431,745.034054 773.887195,746.227139 774.020818,747.352463 C774.182173,748.729473 775.301578,750 777.089095,750 L826,750 L826,728.328436 L810.257748,722 L805.553225,729.816768" id="Fill-36" fill="#4E68A3"></path>
                <path d="M756.552977,739.816768 L726.691752,754.40242 C725.390807,755.034054 724.889086,756.227139 725.020189,757.350043 C725.181547,758.729473 726.300965,760 728.085982,760 L777,760 L777,738.328436 L761.260079,732 L756.552977,739.816768" id="Fill-37" fill="#667CAF"></path>
                <path d="M775.258214,488.00467 C775.258214,488.00467 717.040796,630.86742 757.024867,739 L777.665912,737.465585 C777.665912,737.465585 756.060261,613.961412 802.633686,543.333422 C802.633686,543.333422 783.580806,653.095227 804.944669,724.566521 L825.585714,723.032106 C825.585714,723.032106 815.937107,635.952196 835.946958,576.898434 C865.732673,488.987694 842.121456,458 842.121456,458 L792.374247,462.713024 L775.258214,488.00467" id="Fill-38" fill="#362436"></path>
                <path d="M618,342.778451 L609.517842,331.066892 C609.517842,331.066892 610.69107,315.860672 607.469185,312.650668 C604.2473,309.438123 601.785318,315.08041 600.640329,320.730322 C600.640329,320.730322 588.343254,302.807164 581.047161,305.224198 C576.564761,306.711017 572.159379,323.00757 581.563176,334.34806 C591.06196,345.805462 605.256225,347 605.256225,347 L618,342.778451" id="Fill-39" fill="#F7C061"></path>
                <path d="M725,292 L705.072922,267.446912 C705.072922,267.446912 684.133267,265.131444 680.49375,259.388372 C676.848999,253.642767 694.578238,256.67517 694.578238,256.67517 C694.578238,256.67517 687.866978,229.30248 694.782323,226.781811 C702.113688,224.106609 710.721893,228.266346 714.944884,239.732222 C718.197163,248.573563 721.57765,259.641706 721.57765,259.641706 L725,292" id="Fill-40" fill="#F7C061"></path>
                <path d="M737.934649,330 L704,265.011207 C704,265.011207 712.264931,255.332775 720.425703,257.25184 L766,324.849755 L737.934649,330" id="Fill-41" fill="#4E68A3"></path>
                <path d="M748.222064,374.040577 L611.31779,337 C611.31779,337 606.160134,338.996948 607.118816,353.008782 L744.030678,408.01423 L776.547435,492.552547 C776.547435,492.552547 831.728536,499.130729 843,461.842449 C843,461.842449 820.909853,399.245023 787.148581,364.594655 C785.995128,363.409765 748.222064,374.040577 748.222064,374.040577" id="Fill-42" fill="#667CAF"></path>
                <path d="M748.297663,314.53554 C746.487128,305.240266 723.715353,324.282416 724.941996,327.123642 C726.173348,329.964868 726.173348,329.964868 726.173348,329.964868 C726.173348,329.964868 719.093662,339.350462 723.376319,353.259824 C727.658976,367.169187 731.136427,368.660766 738.701121,374 L743.416988,353.259824 C743.416988,353.259824 748.839176,354.348832 752.005846,349.342494 C755.172517,344.338736 750.209437,337.796949 745.053297,337.778885 C745.053297,337.778885 750.06111,323.593399 748.297663,314.53554" id="Fill-43" fill="#F7C061"></path>
                <path d="M750.671612,336.607764 C750.671612,336.607764 742.219056,316.777493 752.548798,307.756862 C762.878541,298.73623 779.426465,300.469804 790.374114,311.881659 C804.111472,326.203801 806.643067,348.243875 792.720598,365.61489 C779.66372,381.904941 746.575694,380.022703 743.637375,371.974687 C740.701663,363.929191 748.859605,351.723621 748.859605,351.723621 C748.859605,351.723621 762.192846,348.236316 750.671612,336.607764" id="Fill-44" fill="#362436"></path>
                <path d="M803.004024,544.604738 C803.004024,544.604738 792.318136,592.329072 795.640376,646 C798.793247,587.028577 823,528 823,528 L803.004024,544.604738" id="Fill-45" fill="#251B26"></path>
                <polyline id="Fill-46" fill="#4E68A3" points="760 448 759.311336 412.355403 743 406 760 448"></polyline>
                <path d="M173.5,850 C117.993818,850 73,838.360601 73,824.001233 C73,809.641865 117.993818,798 173.5,798 C229.003672,798 274,809.641865 274,824.001233 C274,838.360601 229.003672,850 173.5,850" id="Fill-47" fill="#E5EEEE"></path>
                <path d="M185.552455,462.044451 C180.700376,460.233363 128.268992,514.209396 132.21146,542.67736 C135.911201,569.387727 180.268863,590 180.268863,590 L205,503.200221 L185.552455,462.044451" id="Fill-48" fill="#D73C5B"></path>
                <polyline id="Fill-49" fill="#7D9AAF" points="354 481.602085 29.1776615 570 24 550.400462 348.824848 462 354 481.602085"></polyline>
                <polyline id="Fill-50" fill="#4D7A95" points="333 474.602085 8.17515173 563 3 543.400462 327.822338 455 333 474.602085"></polyline>
                <polyline id="Fill-51" fill="#4D7A95" points="340 505.6 15.1751517 594 10 574.4 334.822338 486 340 505.6"></polyline>
                <path d="M249.665046,804.005268 L277.402017,820.828483 C277.914635,821.138008 278.076641,821.609552 277.967831,822.03515 C277.837259,822.542966 277.324641,822.980655 276.56055,823 L226,821.561188 L227.990021,802.160204 L246.814214,795 L249.665046,804.005268" id="Fill-52" fill="#E15B73"></path>
                <path d="M121.178818,775.484173 L131.93795,810.469303 C132.116602,811.082943 131.89262,811.563627 131.481987,811.81164 C130.996692,812.110789 130.250086,812.07755 129.62347,811.538059 L90,773.898938 L106.665322,760 L126.7677,768.432431 L121.178818,775.484173" id="Fill-53" fill="#E15B73"></path>
                <path d="M164,734.909015 C164,734.909015 143.686132,758.339545 121.184878,777 L108,761.683151 C108,761.683151 134.125097,739.340178 150.039969,701 L164,734.909015" id="Fill-54" fill="#F7C061"></path>
                <path d="M157.851456,707.903142 L153.216721,705 C145.569669,721.391467 136.135606,734.724128 128,744.497261 L156.391018,750 C164.680766,741.799078 170,735.966849 170,735.966849 L157.851456,707.903142" id="Fill-55" fill="#E3A443"></path>
                <path d="M267,689.625628 C265.703804,692.130653 263.002717,767.698492 253.358696,805 L229,803.082915 C229,803.082915 242.339674,699.753769 239.630435,670 L267,689.625628" id="Fill-56" fill="#F7C061"></path>
                <path d="M255.971819,769.828672 C257.805688,756.94424 259.21336,744.394732 260,732 L233.853353,732.855072 C233.193355,747.152782 232.947378,761.445418 232,774 L255.971819,769.828672" id="Fill-57" fill="#E3A443"></path>
                <path d="M245.913459,541 L252.994543,563.12364 C252.994543,563.12364 278.833666,702.187982 266.809996,767 L226.193729,762.898297 C226.193729,762.898297 228.155073,671.699934 215.518957,640.396657 C215.518957,640.396657 199.061384,705.71468 167.730499,751.962978 L128,728.622883 C128,728.622883 165.12634,671.699934 164.913756,559.929168 L245.913459,541" id="Fill-58" fill="#362436"></path>
                <path d="M333,393 L335.698902,372.504081 L333,361.342142 L340.850284,356.956078 C340.850284,356.956078 347.691414,338.992373 353.598489,345.369514 C362.469662,354.952055 351.716298,373.451719 347.067146,382.865964 L333,393" id="Fill-59" fill="#F7C061"></path>
                <path d="M217.932966,439.868969 C217.932966,439.868969 284.019922,439.207136 330.86117,371 L343,381.226471 C343,381.226471 314.013657,441.110864 249.588147,468.621655 C249.588147,468.621655 242.924821,540.125179 250.217141,564.357469 C250.217141,564.357469 198.404085,583.517408 163,561.163294 C163,561.163294 169.936474,493.656321 185.270392,464.30313 C200.606816,434.952495 217.932966,439.868969 217.932966,439.868969" id="Fill-60" fill="#E15B73"></path>
                <path d="M228.11195,385 C228.11195,385 238.768553,397.676319 239,416.33731 L235.877987,417.73054 C235.877987,417.73054 241.611321,438.82321 225.090566,445.833382 C208.567296,452.843555 201,425.970795 201,425.970795 L207.135849,390.311365 L228.11195,385" id="Fill-61" fill="#F7C061"></path>
                <path d="M229.401853,417.762467 C229.401853,417.762467 238.44078,447.901796 227.670131,466.275301 C216.902018,484.643747 190.715751,493.561083 177.343717,478.036065 C163.971682,462.508518 185.966828,450.897009 183.550531,436.948019 C181.131699,422.9965 169.458425,398.857716 179.541964,391.655544 C179.541964,391.655544 178.185491,382.464997 189.896796,372.184131 C201.605567,361.903266 223.425766,374.460898 230.905383,369.333114 C238.382465,364.207859 252.342726,400.185829 229.401853,417.762467" id="Fill-62" fill="#362436"></path>
                <path d="M201,670 C210.771527,651.2104 215,638.584678 215,638.584678 L202.466032,611 L201,670" id="Fill-63" fill="#251B26"></path>
                <path d="M253,465 L232,470.696356 L250.65015,493 C249.46379,477.72942 253,465 253,465" id="Fill-64" fill="#D73C5B"></path>
                <path d="M293.807891,53.0570879 C293.807891,53.0570879 353.419036,116.652298 420,120.437697 L417.866638,138.878679 C417.866638,138.878679 357.803722,143.06742 308.568244,102.21968 L301.349952,115.880687 L184,134.669896 C184,134.669896 220.324875,73.1640468 255.57303,53.8036458 C290.823695,34.4407395 293.807891,53.0570879 293.807891,53.0570879" id="Fill-65" fill="#E98964"></path>
                <path d="M263.07436,9.37586678 C263.07436,9.37586678 249.34182,10.0037534 241.878763,25.7085764 C234.418284,41.4159518 241.301311,63.5885177 264.365894,65.8193019 C287.435633,68.0500861 300.077716,48.8893342 300.077716,48.8893342 L304.795296,40.7829604 C304.795296,40.7829604 306.896294,18.5210611 297.636433,8.25281751 C288.05691,-2.37020759 270.625065,-3.50601878 263.07436,9.37586678" id="Fill-66" fill="#362436"></path>
                <path d="M300.432647,28.2073376 C301.846325,32.7202441 305.628342,53.8309724 291.960343,68.0075587 C281.93519,78.404785 258.09066,71.805523 256.457239,55.2156746 C256.457239,55.2156746 244.630196,47.7207415 246.131772,41.9613372 C247.635789,36.1992751 251.87194,38.0384573 255.524553,39.7128573 C255.524553,39.7128573 261.074279,29.9348931 263.266823,24.5130266 C264.822113,20.6672223 271.206861,13.6692936 283.043671,14.0121469 C291.0008,14.2433735 297.864098,20.0080934 300.432647,28.2073376" id="Fill-67" fill="#F7C061"></path>
                <path d="M253,24.4854466 L255.9154,35 C255.9154,35 277.827921,29.4488537 283.713167,16.7252978 C283.713167,16.7252978 289.942421,31.2544083 302,25.8626489 C302,25.8626489 300.448255,10.2178302 292.541037,8.12587739 C284.63382,6.03392456 272.786605,7.49829154 272.786605,7.49829154 L260.17218,12.2076758 L253,24.4854466" id="Fill-68" fill="#362436"></path>
                <path d="M250.791026,90 C250.791026,90 260.453104,176.400184 298,213.23886 L277.898523,222 C277.898523,222 230.826277,177.55841 222.00482,107.004989 C221.569317,103.520216 250.791026,90 250.791026,90" id="Fill-69" fill="#E98964"></path>
                <polyline id="Fill-70" fill="#D96E4C" points="226 129.13817 221.192287 108 205 132 226 129.13817"></polyline>
                <path d="M294.441572,212 C294.441572,212 309.676812,216.368635 311.73632,222.055587 C313.798386,227.740046 303.088946,224.398152 303.088946,224.398152 C303.088946,224.398152 314.279364,246.139153 303.221982,253.164358 C292.164601,260.18707 274,220.637587 274,220.637587 L294.441572,212" id="Fill-71" fill="#F7C061"></path>
                <polyline id="Fill-72" fill="#E5EEEE" points="535.15717 881 455.811248 846.048354 385 820.311067 427.82763 798 569 820.311067 535.15717 881"></polyline>
                <polyline id="Fill-73" fill="#D6E6EF" points="378 807.49731 428.316016 807.49731 454.809127 847.022558 507.5482 854.667673 534.754724 881 645 814.347334 624.224387 784.286739 572.677733 777.367909 551.833327 750.869939 503.415499 746 378 807.49731"></polyline>
                <polyline id="Fill-74" fill="#B9CFDF" points="430 805.359625 551.496602 750 572 775.904747 456.05969 844 430 805.359625"></polyline>
                <polyline id="Fill-75" fill="#B9CFDF" points="507 849.406419 621.594973 781 642 810.217254 533.721226 875 507 849.406419"></polyline>
                <polyline id="Fill-99" fill="#92938F" points="416.003 951.03 416 951 416.003 951.03"></polyline>
                <path d="M416.216,952.314 L416.219,952.314 C416.129,951.873 416.054,951.432 416,951 C416.054,951.438 416.129,951.879 416.216,952.314" id="Fill-100" fill="#92938F"></path>
                <polyline id="Fill-101" fill="#92938F" points="416.03 955.066 416 955 416.03 955.066"></polyline>
                <polyline id="Fill-102" fill="#92938F" points="416.123 955.249 416 955 416.123 955.249"></polyline>
                <path d="M416,951 C416.24,951.75 416.528,952.476 416.858,953.172 C416.519,952.461 416.24,951.735 416.006,951 L416,951" id="Fill-103" fill="#92938F"></path>
            </g>
        </g>
    </g>
</svg>