<svg height="180" viewBox="0 0 286 180" width="286" xmlns="http://www.w3.org/2000/svg"><g fill="none" fill-rule="evenodd" transform="translate(44 -36)"><g fill-rule="nonzero"><g transform="translate(28 140)"><path d="m23.5971909.83288518c-4.5018124 2.79211933-7.9707002 6.55868369-10.4066635 11.29969302-2.4359634 4.7410094-5.52041318 12.1431317-9.25334941 22.2063668l6.16249361-6.1148017-9.60329337 24.1556247 15.12798267-19.0716123-5.5246893 12.1027639c8.6822576-8.2800478 14.541457-14.8593287 17.5775982-19.7378428 3.0361411-4.878514 5.5692035-10.7781516 7.599187-17.6989128z" fill="#f78302" stroke="#f00" stroke-width="3"/><path d="m26.978433 2.03846154c-1.7565294 1.1880052-3.1020193 2.4376843-4.0364698 3.7490373-.9344504 1.311353-1.7246286 2.74247417-2.3705346 4.29336356l1.8656942-1.34492985 1.7338951-1.09841357c-.6091549.73519709-1.3145337 1.73867895-2.1161362 3.01044552-.8016025 1.2717667-1.2960869 2.2106213-1.4834531 2.8165639l2.8273812-2.2852525c-.6140697 1.3100306-1.0620457 2.3004339-1.3439281 2.9712097s-.7763667 1.9755128-1.4834531 3.9142108c1.1227562-1.7260284 1.9129344-2.8537105 2.3705346-3.3830463.4576002-.5293357 1.1868173-1.3144561 2.1876513-2.3553611l-1.2274154 3.8519438c.920443-.9609189 1.5291717-1.6368346 1.826186-2.0277472.951081-1.2517562 2.9199347-4.76847426 2.9199347-4.76847426s-.5566289 1.88437466-1.6698868 5.65312406c1.690074-2.0808118 2.9708118-3.5432021 3.8422136-4.3871709.8714017-.84396876 1.6924427-2.46412399 2.463123-4.86046566z" fill="#fff90a" stroke="#eeb20f"/></g><g transform="translate(46 150)"><path d="m23.5971909.83288518c-4.5018124 2.79211933-7.9707002 6.55868369-10.4066635 11.29969302-2.4359634 4.7410094-5.52041318 12.1431317-9.25334941 22.2063668l6.16249361-6.1148017-9.60329337 24.1556247 15.12798267-19.0716123-5.5246893 12.1027639c8.6822576-8.2800478 14.541457-14.8593287 17.5775982-19.7378428 3.0361411-4.878514 5.5692035-10.7781516 7.599187-17.6989128z" fill="#f78302" stroke="#f00" stroke-width="3"/><path d="m26.978433 2.03846154c-1.7565294 1.1880052-3.1020193 2.4376843-4.0364698 3.7490373-.9344504 1.311353-1.7246286 2.74247417-2.3705346 4.29336356l1.8656942-1.34492985 1.7338951-1.09841357c-.6091549.73519709-1.3145337 1.73867895-2.1161362 3.01044552-.8016025 1.2717667-1.2960869 2.2106213-1.4834531 2.8165639l2.8273812-2.2852525c-.6140697 1.3100306-1.0620457 2.3004339-1.3439281 2.9712097s-.7763667 1.9755128-1.4834531 3.9142108c1.1227562-1.7260284 1.9129344-2.8537105 2.3705346-3.3830463.4576002-.5293357 1.1868173-1.3144561 2.1876513-2.3553611l-1.2274154 3.8519438c.920443-.9609189 1.5291717-1.6368346 1.826186-2.0277472.951081-1.2517562 2.9199347-4.76847426 2.9199347-4.76847426s-.5566289 1.88437466-1.6698868 5.65312406c1.690074-2.0808118 2.9708118-3.5432021 3.8422136-4.3871709.8714017-.84396876 1.6924427-2.46412399 2.463123-4.86046566z" fill="#fff90a" stroke="#eeb20f"/></g><path d="m131.938096 65.3080809c-6.518458-3.0594401-15.236047-4.8139321-23.91774-4.8139321h-56.6536137c-.9820623-1.3015725-2.0991781-2.3783731-3.3158486-3.1769886h40.9310973c-29.1213613-6.0070899-31.0557385-27.0044035-55.5279707-27.0044035h-.0005949v25.4159091h-3.1730609v-25.4159091c-5.2573653 0-9.5191827 5.6895895-9.5191827 12.7079546v12.7079545c-4.6003434 0-6.3461218 1.9919719-6.3461218 4.765483v7.9424716c0 2.7764895 1.7489515 4.765483 6.3461218 4.765483v3.1769886c-4.6003434 0-6.3461218 1.9919719-6.3461218 4.765483v7.9424716c0 2.7764895 1.7489515 4.765483 6.3461218 4.765483v12.7079544c0 7.018365 4.2618174 12.707955 9.5191827 12.707955v-25.4159094h3.1730609v25.4159094h.0005949c24.4722322 0 26.4066094-20.9973139 55.5279707-27.0044037h-40.9312956c1.2166705-.7986156 2.3337863-1.8754161 3.3158486-3.1769887h56.653812c8.681693 0 17.399282-1.754492 23.91774-4.813932 5.885632-2.7621931 9.3994-6.3071167 9.3994-9.4825169 0-3.1754001-3.513768-6.7203238-9.3994-9.4825168zm-20.744679 17.4249884c-.876216 0-1.58653-.7111931-1.58653-1.5884943v-12.7079546c0-.8773012.710314-1.5884943 1.58653-1.5884943 6.328075 0 6.33462 15.8849432 0 15.8849432z" fill="#221c67" transform="matrix(.52991926067 -.84804809621 .84804809621 .52991926067 -5.71103406137 124.22523888849)"/></g><path d="m109.453523 146.876544c.16926-.218122.329643-.483581.481151-.796381-.335003.020762-.669321-.029706-1.002963-.151406-.370714-.135222-.700089-.338012-.988136-.608376-.288047-.270365-.622885-.631506-1.004524-1.083436-.245496-.29505-.458259-.535718-.638297-.72201-.180039-.186293-.363826-.344913-.551368-.475865l4.798706-7.872474c-.187041-.086095-.332459-.148072-.436258-.185935-.607971-.221764-1.269658-.295595-1.985081-.221494-.715423.0741-1.354428.27882-1.917034.614166-.562606.335345-.935596.755483-1.118981 1.260426-.149001.410265-.157497.739987-.02549.989174.132006.249186.398191.446797.798562.592836.005731-.015779.003421-.090334-.006931-.223666s.037481-.345955.143501-.637875c.229232-.631178.558668-1.116344.988319-1.455512.42965-.339168.931529-.524662 1.505651-.556487l-4.635647 7.596894c.06218.013745.148875.040901.260089.081468.318814.116291.607707.297614.866688.543974.258981.246359.48497.514188.677974.803494.193005.289306.417553.65936.673651 1.110171.34489.599353.642058 1.058439.891511 1.37727.039632.050655.080327.098821.122084.1445-.58287-.054817-1.168356-.184381-1.74419-.394423-3.631857-1.324762-5.504456-5.349297-4.182569-8.989051 1.321888-3.639753 5.337692-5.516425 8.969549-4.191663s5.504456 5.349297 4.182569 8.989051c-.856172 2.357426-2.84244 3.975238-5.122536 4.46263z" fill="#5ad3a1"/><path d="m57.4535232 116.876544c.1692597-.218122.3296427-.483581.4811506-.796381-.3350031.020762-.6693208-.029706-1.0029632-.151406-.3707137-.135222-.7000891-.338012-.9881359-.608376-.2880469-.270365-.6228848-.631506-1.0045238-1.083436-.2454954-.29505-.4582591-.535718-.6382974-.72201-.1800382-.186293-.3638256-.344913-.5513675-.475865l4.7987057-7.872474c-.1870403-.086095-.3324583-.148072-.4362581-.185935-.6079706-.221764-1.2696574-.295595-1.9850804-.221494-.715423.0741-1.3544278.27882-1.9170338.614166-.5626059.335345-.935596.755483-1.1189814 1.260426-.1490006.410265-.1574973.739987-.0254905.989174.1320069.249186.3981918.446797.7985627.592836.0057308-.015779.0034203-.090334-.0069313-.223666-.0103517-.133332.0374816-.345955.1435012-.637875.2292318-.631178.558668-1.116344.9883185-1.455512.4296506-.339168.9315294-.524662 1.5056516-.556487l-4.6356471 7.596894c.0621796.013745.1488751.040901.2600893.081468.3188138.116291.6077067.297614.8666874.543974.2589807.246359.4849699.514188.6779745.803494s.4175524.65936.6736503 1.110171c.3448905.599353.6420579 1.058439.8915113 1.37727.0396321.050655.0803266.098821.1220836.1445-.5828698-.054817-1.1683554-.184381-1.7441891-.394423-3.6318569-1.324762-5.5044569-5.349297-4.1825691-8.989051 1.3218879-3.639753 5.3376914-5.516425 8.9695483-4.191663s5.5044569 5.349297 4.1825691 8.989051c-.8561712 2.357426-2.8424402 3.975238-5.1225355 4.46263z" fill="#5ad3a1"/></g></svg>