<svg width="705" height="731" viewBox="0 0 705 731" fill="none" xmlns="http://www.w3.org/2000/svg">
<path fill-rule="evenodd" clip-rule="evenodd" d="M176.056 183.018H176.523L264.334 364.934L352.137 183.036H352.442L440.334 365.121L528.218 183.055H528.361L616.334 365.307L704.308 183.055H704.688L704.498 182.661L704.669 182.307H704.327L616.354 0.0546875L528.47 182.121H528.246L440.353 0.036499L352.551 181.934H352.165L264.353 0.0181885L176.632 181.748H176.084L88.3534 0L0.62312 181.748H0L0.31156 182.393L0.0187988 183H0.604321L88.3346 364.748L176.056 183.018ZM176.056 548.396H176.523L264.334 730.312L352.137 548.414H352.442L440.334 730.498L528.218 548.432H528.361L616.334 730.684L704.308 548.432H704.688L704.498 548.038L704.669 547.684H704.327L616.354 365.432L528.47 547.498H528.246L440.353 365.414L352.551 547.312H352.165L264.353 365.396L176.632 547.126H176.084L88.3534 365.377L0.623072 547.126H0L0.311536 547.771L0.0187799 548.377H0.604292L88.3346 730.126L176.056 548.396Z" fill="url(#paint0_linear)"/>
<defs>
<linearGradient id="paint0_linear" x1="704.344" y1="0.405285" x2="-32.7135" y2="773.456" gradientUnits="userSpaceOnUse">
<stop stop-color="#C6C6C6" stop-opacity="0.2"/>
<stop offset="1" stop-color="#C4C4C4" stop-opacity="0"/>
</linearGradient>
</defs>
</svg>
