<svg height="112" viewBox="0 0 1478 112" width="1478" xmlns="http://www.w3.org/2000/svg"><g fill="none" transform="translate(0 -2)"><path d="m187.305583 1.33922759h64.062821 1282.631596c-52.3158 26.59785951-116.79117 45.48478361-193.42611 56.66077241-64.29568 9.3765039-167.91139-15.7972919-246.3811-29.3311625-125.782412-21.69401169-125.786506 15.3528996-242.930444 13.936436-117.143939-1.4164635-102.236824-30.0585112-283.027954-20.2961411-180.79113 9.76237-176.282238 34.9699914-353.169017 28.4422294-176.8867778-6.5277621-213.41663354-44.6259195-215.065375-49.41213421" fill="#4d7a95"/><path d="m1515 0c-34.86003 42.636015-76.83988 65.2629133-125.93955 67.8806947-73.64951 3.9266722-111.05376-35.1227362-255.03268-35.1227362-143.978912 0-164.018572 49.0381528-285.017057 49.0381528-120.998486 0-183.746286-60.9613993-305.702167-57.4181784-121.955881 3.543221-113.843009 23.6389437-305.129437 57.4181784-127.524286 22.5194897-206.9173224-4.7458807-238.179109-81.7961113z" fill="#003c72" fill-opacity=".779297" transform="matrix(-1 0 0 1 1515 0)"/></g></svg>