<svg height="61" viewBox="0 0 60 61" width="60" xmlns="http://www.w3.org/2000/svg"><g fill="none"><ellipse cx="30" cy="30.4303" fill="#08599a" rx="30" ry="30.3561"/><ellipse cx="30" cy="30.4302" fill="#fff" rx="27" ry="27.3205"/><path d="m42.415625 20.3494318-1.5707589 1.6122159c1.8060268 1.8536932 2.9270089 4.4318182 2.9270089 7.265625 0 2.8267046-1.1140625 5.4048296-2.9270089 7.265625l1.5707589 1.6122159c2.2073661-2.2798295 3.584375-5.4190341 3.584375-8.8778409s-1.3700893-6.5980113-3.584375-8.8778409zm-7.4870536 6.0440341c1.2732143.1207386 2.2142857 1.3423296 2.2142857 2.8338068 0 1.4914773-.9410714 2.7130682-2.2142857 2.8338068v7.393466h-2.2142857l-6.6428571-4.5454546h-2.0758929l2.0758929 9.0909091h-3.3214286l-5.5357143-9.0909091-2.2142857-1.1363636v-7.9545455l2.2142857-1.1363636h8.8571429l6.6428571-5.6818182h2.2142857zm4.7068268-2.3934659c1.4584071 1.4048357 2.3646018 3.3620583 2.3646018 5.5034098s-.9061947 4.0917545-2.3646018 5.4965902l-1.6353982-1.5753255c1.040708-1.0024798 1.6920354-2.400496 1.6920354-3.9280843s-.6513274-2.9256045-1.6920354-3.9280843z" fill="#08599a"/></g></svg>